<?xml version="1.0" encoding="utf-8"?>
<!-- Generator: Adobe Illustrator 23.0.3, SVG Export Plug-In . SVG Version: 6.00 Build 0)  -->
<svg version="1.1" id="Слой_1" xmlns="http://www.w3.org/2000/svg" xmlns:xlink="http://www.w3.org/1999/xlink" x="0px" y="0px"
	 viewBox="0 0 510 415" style="enable-background:new 0 0 510 415;" xml:space="preserve">
<style type="text/css">
	.st0{filter:url(#Adobe_OpacityMaskFilter);}
	.st1{mask:url(#SVGID_1_);}
	.st2{fill:#111111;}
	.st3{fill:#D2D3D5;}
	.st4{fill:#FFFFFF;}
	.st5{fill:#181819;}
	.st6{fill:#F7B749;}
	.st7{fill:#A8A9AA;}
	.st8{fill:#828383;}
	.st9{fill:#C08538;}
</style>
<defs>
	<filter id="Adobe_OpacityMaskFilter" filterUnits="userSpaceOnUse" x="2.32" y="3.04" width="505.96" height="408.24">
		<feFlood  style="flood-color:white;flood-opacity:1" result="back"/>
		<feBlend  in="SourceGraphic" in2="back" mode="normal"/>
	</filter>
</defs>
<mask maskUnits="userSpaceOnUse" x="2.32" y="3.04" width="505.96" height="408.24" id="SVGID_1_">
	<g class="st0">
	</g>
</mask>
<g class="st1">
	<g>
		<g>
			<g>
				<path class="st2" d="M508.28,279.52H2.32V20.76c0-9.79,7.93-17.72,17.72-17.72h471.5c9.25,0,16.74,7.49,16.74,16.74V279.52z"/>
				<path class="st3" d="M508.28,311.2H2.32v27.64c0,9.79,7.93,17.72,17.72,17.72h471.5c9.25,0,16.74-7.49,16.74-16.74V311.2z"/>
				<path class="st3" d="M339.44,410.56H168.08c4.56-8.34,13.02-3.04,19.39-6.06c1.3-0.61,2.03-1.84,2.93-3.3
					c5.92-9.56,6.63-40.87,6.68-44.82c38.34,0.06,76.68,0.12,115.02,0.18c0.35,6.93,0.79,14.53,1.33,22.74
					c0.95,14.37,1.77,17.49,3.69,21.18C322.02,409.91,334.54,401.13,339.44,410.56z"/>
				<rect x="2.32" y="279.52" class="st4" width="505.96" height="31.68"/>
				<ellipse class="st2" cx="253.76" cy="410.56" rx="85.5" ry="0.72"/>
			</g>
			<g>
				<path class="st5" d="M250.59,327.61c0.27,0.35,0.72,0.85,1.41,1.26c1.05,0.63,2.06,0.71,2.55,0.72c0.49,0,1.6-0.06,2.7-0.78
					c0.61-0.4,1.01-0.86,1.26-1.2c0.14-0.07,1.68-0.82,3.2,0.02c1.13,0.62,1.5,1.71,1.57,1.96c-0.44,0.23-1.71,0.98-2.43,2.55
					c-0.5,1.1-0.51,2.1-0.47,2.62c0,0.48,0.06,2.12,1.28,3.47c0.57,0.62,1.19,0.98,1.62,1.17c-0.13,0.77-0.47,2.1-1.41,3.48
					c-0.77,1.12-1.65,1.84-2.25,2.25c-0.15,0.09-0.5,0.26-0.96,0.27c-0.54,0-0.92-0.22-1.07-0.31c-0.16-0.23-0.45-0.59-0.91-0.89
					c-0.65-0.42-1.28-0.49-1.59-0.51c-0.32,0.04-0.91,0.17-1.5,0.57c-0.4,0.27-0.67,0.58-0.84,0.81c-0.28,0.11-0.69,0.25-1.2,0.3
					c-0.18,0.02-0.97,0.08-1.91-0.26c-0.89-0.32-1.42-0.83-1.96-1.33c-0.76-0.71-1.2-1.4-1.51-1.89c-0.12-0.19-0.5-0.81-0.9-1.76
					c-0.27-0.63-0.74-1.78-0.94-3.33c-0.1-0.75-0.32-2.99,0.61-5.47c0.41-1.09,0.85-1.73,1.09-2.05c0.47-0.63,0.96-1.28,1.83-1.64
					C249.17,327.11,250.33,327.52,250.59,327.61z"/>
				<path class="st5" d="M253.87,327.4c0.34,0,0.75-0.02,1.2-0.13c1.09-0.25,1.84-0.81,2.25-1.17c0.32-0.31,0.85-0.89,1.2-1.77
					c0.31-0.76,0.36-1.44,0.36-1.86c-0.35-0.09-1.43-0.31-2.58,0.24c-0.67,0.32-1.09,0.77-1.32,1.05c-0.26,0.23-0.63,0.63-0.9,1.23
					C253.6,326.06,253.78,327.05,253.87,327.4z"/>
			</g>
			<g>
				<g>
					<path class="st4" d="M54.01,38.07c0-1.08,0.02-2.31,0.04-3h-0.04c-0.28,1.22-1.02,3.66-1.59,5.42h-0.96
						c-0.43-1.48-1.18-4.2-1.45-5.43h-0.04c0.05,0.72,0.08,2.07,0.08,3.14v2.29h-1.01V34.3h1.63c0.51,1.58,1.16,3.86,1.35,4.77h0.01
						c0.13-0.73,0.94-3.18,1.47-4.77h1.58v6.18h-1.06V38.07z"/>
					<path class="st4" d="M57.7,40.49v-2.37c0-0.07-0.01-0.13-0.05-0.19l-1.98-3.63h1.23c0.46,0.95,1.12,2.24,1.39,2.79
						c0.43-0.88,0.96-1.9,1.39-2.79h1.14l-2,3.62c-0.03,0.05-0.05,0.1-0.05,0.18v2.39H57.7z"/>
					<path class="st4" d="M66.14,38.59c-0.17,1.02-0.85,1.99-2.4,1.99c-1.9,0-2.6-1.4-2.6-3.2c0-1.71,0.86-3.16,2.65-3.16
						c1.58,0,2.23,1,2.31,1.98h-1.07c-0.14-0.58-0.4-1.1-1.28-1.1c-1.09,0-1.49,1.09-1.49,2.27c0,1.22,0.35,2.32,1.5,2.32
						c0.86,0,1.15-0.56,1.29-1.1H66.14z"/>
					<path class="st4" d="M72.31,37.36c0,1.78-0.85,3.21-2.75,3.21c-1.84,0-2.67-1.43-2.67-3.22c0-1.56,0.84-3.14,2.75-3.14
						C71.45,34.22,72.31,35.66,72.31,37.36z M68.02,37.35c0,1.31,0.52,2.34,1.59,2.34c1.14,0,1.58-0.98,1.58-2.33
						c0-1.23-0.44-2.26-1.6-2.26C68.49,35.1,68.02,36.1,68.02,37.35z"/>
					<path class="st4" d="M78.38,38.07c0-1.08,0.02-2.31,0.04-3h-0.04c-0.28,1.22-1.02,3.66-1.59,5.42h-0.96
						c-0.43-1.48-1.18-4.2-1.45-5.43h-0.04c0.05,0.72,0.08,2.07,0.08,3.14v2.29H73.4V34.3h1.63c0.51,1.58,1.16,3.86,1.35,4.77h0.01
						c0.13-0.73,0.94-3.18,1.47-4.77h1.58v6.18h-1.06V38.07z"/>
					<path class="st4" d="M80.82,34.3h2.21c1.16,0,2.12,0.6,2.12,1.8c0,1.26-0.91,1.9-2.23,1.9h-1.01v2.48h-1.09V34.3z M81.91,37.14
						h0.95c0.72,0,1.18-0.26,1.18-1.01c0-0.66-0.47-0.95-1.15-0.95h-0.98V37.14z"/>
					<path class="st4" d="M87.08,38.88l-0.49,1.61h-1.08c0.2-0.6,1.71-5.5,1.93-6.18h1.4l2.03,6.18h-1.15l-0.52-1.61H87.08z
						 M88.98,37.96c-0.43-1.37-0.72-2.27-0.85-2.82h-0.01c-0.16,0.7-0.45,1.66-0.81,2.82H88.98z"/>
					<path class="st4" d="M91.65,40.49V34.3h1.41c2.05,3.98,2.36,4.59,2.46,4.87h0.02c-0.06-0.77-0.07-1.77-0.07-2.78V34.3h1.01
						v6.18h-1.34c-2.2-4.35-2.41-4.81-2.52-5.05H92.6c0.04,0.79,0.05,1.85,0.05,2.95v2.1H91.65z"/>
					<path class="st4" d="M99.1,40.49v-2.37c0-0.07-0.01-0.13-0.05-0.19l-1.98-3.63h1.23c0.46,0.95,1.12,2.24,1.39,2.79
						c0.43-0.88,0.96-1.9,1.39-2.79h1.14l-2,3.62c-0.03,0.05-0.05,0.1-0.05,0.18v2.39H99.1z"/>
				</g>
			</g>
			<g>
				<g>
					<path class="st4" d="M250.14,37.55h0.73v1.66h1.65v-1.66h0.73v4.12h-0.73v-1.85h-1.65v1.85h-0.73V37.55z"/>
					<path class="st4" d="M257.59,39.58c0,1.18-0.57,2.14-1.83,2.14c-1.23,0-1.78-0.95-1.78-2.15c0-1.04,0.56-2.09,1.83-2.09
						C257.02,37.49,257.59,38.45,257.59,39.58z M254.74,39.58c0,0.87,0.35,1.56,1.06,1.56c0.76,0,1.05-0.66,1.05-1.55
						c0-0.82-0.29-1.51-1.06-1.51C255.05,38.08,254.74,38.74,254.74,39.58z"/>
					<path class="st4" d="M261.64,40.05c0-0.72,0.01-1.54,0.03-1.99h-0.03c-0.19,0.81-0.68,2.43-1.06,3.61h-0.64
						c-0.28-0.98-0.79-2.8-0.97-3.62h-0.03c0.03,0.48,0.05,1.38,0.05,2.09v1.53h-0.67v-4.12h1.09c0.34,1.05,0.77,2.57,0.9,3.17h0.01
						c0.09-0.49,0.62-2.12,0.98-3.17h1.05v4.12h-0.7V40.05z"/>
					<path class="st4" d="M265.79,39.82h-1.81v1.25h2l-0.09,0.6h-2.62v-4.12h2.6v0.61h-1.89v1.06h1.81V39.82z"/>
				</g>
			</g>
			<g>
				<g>
					<path class="st4" d="M276.72,40.59l-0.33,1.07h-0.72c0.13-0.4,1.14-3.67,1.29-4.12h0.94l1.35,4.12h-0.77l-0.35-1.07H276.72z
						 M277.98,39.98c-0.29-0.91-0.48-1.51-0.57-1.88h-0.01c-0.11,0.47-0.3,1.11-0.54,1.88H277.98z"/>
					<path class="st4" d="M279.76,37.55h1.54c0.85,0,1.27,0.44,1.27,1.04c0,0.53-0.3,0.75-0.53,0.84c0.3,0.12,0.67,0.41,0.67,1
						c0,0.79-0.59,1.24-1.44,1.24h-1.51V37.55z M281.17,39.19c0.49,0,0.7-0.17,0.7-0.54c0-0.35-0.24-0.54-0.65-0.54h-0.74v1.09
						H281.17z M280.47,41.11h0.74c0.43,0,0.76-0.21,0.76-0.68c0-0.43-0.26-0.68-0.82-0.68h-0.68V41.11z"/>
					<path class="st4" d="M286.86,39.58c0,1.18-0.56,2.14-1.83,2.14c-1.23,0-1.78-0.95-1.78-2.15c0-1.04,0.56-2.09,1.83-2.09
						C286.29,37.49,286.86,38.45,286.86,39.58z M284,39.58c0,0.87,0.35,1.56,1.06,1.56c0.76,0,1.05-0.66,1.05-1.55
						c0-0.82-0.29-1.51-1.06-1.51C284.32,38.08,284,38.74,284,39.58z"/>
					<path class="st4" d="M288.27,37.55v2.62c0,0.53,0.17,0.97,0.83,0.97c0.66,0,0.82-0.42,0.82-0.97v-2.62h0.74v2.64
						c0,0.87-0.36,1.54-1.57,1.54c-1.16,0-1.55-0.62-1.55-1.53v-2.65H288.27z"/>
					<path class="st4" d="M292.3,38.15h-1.15v-0.61h3.03v0.61h-1.15v3.51h-0.73V38.15z"/>
				</g>
			</g>
			<g>
				<g>
					<path class="st4" d="M306.59,40.47c0.07,0.43,0.35,0.68,0.81,0.68c0.48,0,0.7-0.22,0.7-0.57c0-0.4-0.22-0.57-0.86-0.76
						c-0.92-0.26-1.25-0.59-1.25-1.18c0-0.73,0.57-1.15,1.35-1.15c0.95,0,1.36,0.52,1.4,1.15h-0.72c-0.06-0.34-0.24-0.59-0.7-0.59
						c-0.41,0-0.61,0.19-0.61,0.51c0,0.33,0.21,0.44,0.82,0.62c1.04,0.31,1.3,0.72,1.3,1.3c0,0.68-0.46,1.22-1.47,1.22
						c-0.88,0-1.44-0.46-1.49-1.25H306.59z"/>
					<path class="st4" d="M312.05,39.82h-1.81v1.25h2l-0.09,0.6h-2.62v-4.12h2.6v0.61h-1.89v1.06h1.81V39.82z"/>
					<path class="st4" d="M313.59,39.9v1.76h-0.72v-4.12h1.6c0.76,0,1.3,0.38,1.3,1.1c0,0.57-0.32,0.84-0.65,0.96
						c0.42,0.15,0.58,0.48,0.58,1.01v0.1c0,0.37,0.02,0.72,0.06,0.96h-0.71c-0.06-0.17-0.08-0.48-0.08-0.96v-0.1
						c0-0.51-0.18-0.7-0.77-0.7H313.59z M313.59,39.32h0.67c0.45,0,0.79-0.12,0.79-0.62c0-0.4-0.28-0.57-0.67-0.57h-0.79V39.32z"/>
					<path class="st4" d="M317.44,41.67l-1.34-4.12h0.78l0.58,1.93c0.17,0.56,0.34,1.12,0.42,1.5h0.01
						c0.08-0.36,0.27-0.95,0.44-1.49l0.61-1.94h0.75l-1.38,4.12H317.44z"/>
					<path class="st4" d="M320.89,37.55v4.12h-0.73v-4.12H320.89z"/>
					<path class="st4" d="M324.95,40.4c-0.11,0.68-0.57,1.32-1.6,1.32c-1.27,0-1.73-0.94-1.73-2.13c0-1.14,0.57-2.11,1.76-2.11
						c1.06,0,1.49,0.66,1.54,1.32h-0.72c-0.09-0.39-0.27-0.73-0.85-0.73c-0.73,0-0.99,0.73-0.99,1.51c0,0.81,0.23,1.55,1,1.55
						c0.57,0,0.77-0.38,0.86-0.74H324.95z"/>
					<path class="st4" d="M328.17,39.82h-1.81v1.25h2l-0.09,0.6h-2.62v-4.12h2.6v0.61h-1.89v1.06h1.81V39.82z"/>
					<path class="st4" d="M329.46,40.47c0.07,0.43,0.35,0.68,0.81,0.68c0.48,0,0.7-0.22,0.7-0.57c0-0.4-0.22-0.57-0.86-0.76
						c-0.92-0.26-1.25-0.59-1.25-1.18c0-0.73,0.57-1.15,1.35-1.15c0.95,0,1.36,0.52,1.4,1.15h-0.72c-0.05-0.34-0.23-0.59-0.7-0.59
						c-0.41,0-0.61,0.19-0.61,0.51c0,0.33,0.21,0.44,0.82,0.62c1.04,0.31,1.31,0.72,1.31,1.3c0,0.68-0.46,1.22-1.47,1.22
						c-0.88,0-1.44-0.46-1.49-1.25H329.46z"/>
				</g>
			</g>
			<g>
				<g>
					<path class="st4" d="M338.97,37.55h1.47c0.77,0,1.41,0.4,1.41,1.2c0,0.84-0.61,1.27-1.48,1.27h-0.67v1.65h-0.73V37.55z
						 M339.7,39.43h0.63c0.48,0,0.78-0.17,0.78-0.67c0-0.44-0.31-0.63-0.77-0.63h-0.65V39.43z"/>
					<path class="st4" d="M345.93,39.58c0,1.18-0.56,2.14-1.83,2.14c-1.23,0-1.78-0.95-1.78-2.15c0-1.04,0.56-2.09,1.83-2.09
						C345.36,37.49,345.93,38.45,345.93,39.58z M343.07,39.58c0,0.87,0.35,1.56,1.06,1.56c0.76,0,1.05-0.66,1.05-1.55
						c0-0.82-0.29-1.51-1.06-1.51C343.38,38.08,343.07,38.74,343.07,39.58z"/>
					<path class="st4" d="M347.37,39.9v1.76h-0.72v-4.12h1.6c0.76,0,1.3,0.38,1.3,1.1c0,0.57-0.32,0.84-0.65,0.96
						c0.42,0.15,0.58,0.48,0.58,1.01v0.1c0,0.37,0.02,0.72,0.06,0.96h-0.71c-0.06-0.17-0.08-0.48-0.08-0.96v-0.1
						c0-0.51-0.18-0.7-0.77-0.7H347.37z M347.37,39.32h0.67c0.45,0,0.79-0.12,0.79-0.62c0-0.4-0.28-0.57-0.67-0.57h-0.79V39.32z"/>
					<path class="st4" d="M351.1,38.15h-1.15v-0.61h3.03v0.61h-1.15v3.51h-0.73V38.15z"/>
					<path class="st4" d="M353.53,37.55h2.56v0.61h-1.85v1.15h1.74v0.6h-1.74v1.76h-0.71V37.55z"/>
					<path class="st4" d="M360.17,39.58c0,1.18-0.57,2.14-1.83,2.14c-1.23,0-1.78-0.95-1.78-2.15c0-1.04,0.56-2.09,1.83-2.09
						C359.6,37.49,360.17,38.45,360.17,39.58z M357.31,39.58c0,0.87,0.35,1.56,1.06,1.56c0.76,0,1.05-0.66,1.05-1.55
						c0-0.82-0.29-1.51-1.06-1.51C357.63,38.08,357.31,38.74,357.31,39.58z"/>
					<path class="st4" d="M360.9,37.55h0.73v3.52h1.89l-0.08,0.6h-2.53V37.55z"/>
					<path class="st4" d="M364.76,37.55v4.12h-0.73v-4.12H364.76z"/>
					<path class="st4" d="M369.1,39.58c0,1.18-0.57,2.14-1.83,2.14c-1.23,0-1.78-0.95-1.78-2.15c0-1.04,0.56-2.09,1.83-2.09
						C368.54,37.49,369.1,38.45,369.1,39.58z M366.25,39.58c0,0.87,0.35,1.56,1.06,1.56c0.76,0,1.05-0.66,1.05-1.55
						c0-0.82-0.29-1.51-1.06-1.51C366.56,38.08,366.25,38.74,366.25,39.58z"/>
				</g>
			</g>
			<g>
				<g>
					<path class="st4" d="M378.98,38.15h-1.15v-0.61h3.03v0.61h-1.15v3.51h-0.73V38.15z"/>
					<path class="st4" d="M383.93,39.82h-1.81v1.25h2l-0.09,0.6h-2.62v-4.12h2.6v0.61h-1.89v1.06h1.81V39.82z"/>
					<path class="st4" d="M385.22,40.47c0.07,0.43,0.35,0.68,0.81,0.68c0.48,0,0.7-0.22,0.7-0.57c0-0.4-0.22-0.57-0.86-0.76
						c-0.92-0.26-1.25-0.59-1.25-1.18c0-0.73,0.57-1.15,1.35-1.15c0.95,0,1.36,0.52,1.4,1.15h-0.72c-0.06-0.34-0.24-0.59-0.7-0.59
						c-0.41,0-0.61,0.19-0.61,0.51c0,0.33,0.21,0.44,0.82,0.62c1.04,0.31,1.3,0.72,1.3,1.3c0,0.68-0.46,1.22-1.47,1.22
						c-0.88,0-1.44-0.46-1.49-1.25H385.22z"/>
					<path class="st4" d="M388.93,38.15h-1.15v-0.61h3.03v0.61h-1.15v3.51h-0.73V38.15z"/>
					<path class="st4" d="M392.08,37.55v4.12h-0.73v-4.12H392.08z"/>
					<path class="st4" d="M396.33,40.05c0-0.72,0.01-1.54,0.03-1.99h-0.03c-0.19,0.81-0.68,2.43-1.06,3.61h-0.64
						c-0.28-0.98-0.79-2.8-0.97-3.62h-0.03c0.03,0.48,0.05,1.38,0.05,2.09v1.53h-0.67v-4.12h1.09c0.34,1.05,0.77,2.57,0.9,3.17H395
						c0.09-0.49,0.62-2.12,0.98-3.17h1.05v4.12h-0.7V40.05z"/>
					<path class="st4" d="M401.38,39.58c0,1.18-0.56,2.14-1.83,2.14c-1.23,0-1.78-0.95-1.78-2.15c0-1.04,0.56-2.09,1.83-2.09
						C400.81,37.49,401.38,38.45,401.38,39.58z M398.52,39.58c0,0.87,0.35,1.56,1.06,1.56c0.76,0,1.05-0.66,1.05-1.55
						c0-0.82-0.29-1.51-1.06-1.51C398.83,38.08,398.52,38.74,398.52,39.58z"/>
					<path class="st4" d="M402.11,41.67v-4.12h0.94c1.37,2.65,1.57,3.05,1.64,3.25h0.01c-0.04-0.51-0.05-1.18-0.05-1.85v-1.39h0.67
						v4.12h-0.89c-1.46-2.9-1.61-3.2-1.68-3.37h-0.01c0.03,0.53,0.03,1.23,0.03,1.97v1.4H402.11z"/>
					<path class="st4" d="M406.97,37.55v4.12h-0.73v-4.12H406.97z"/>
					<path class="st4" d="M408.54,40.59l-0.33,1.07h-0.72c0.13-0.4,1.14-3.67,1.29-4.12h0.94l1.35,4.12h-0.77l-0.35-1.07H408.54z
						 M409.8,39.98c-0.29-0.91-0.48-1.51-0.57-1.88h-0.01c-0.11,0.47-0.3,1.11-0.54,1.88H409.8z"/>
					<path class="st4" d="M411.58,37.55h0.73v3.52h1.89l-0.08,0.6h-2.53V37.55z"/>
				</g>
			</g>
			<g>
				<g>
					<path class="st4" d="M426.26,40.04c-0.12,0.68-0.57,1.32-1.6,1.32c-1.27,0-1.73-0.94-1.73-2.13c0-1.14,0.57-2.11,1.76-2.11
						c1.06,0,1.49,0.66,1.54,1.32h-0.71c-0.09-0.39-0.27-0.73-0.85-0.73c-0.73,0-0.99,0.73-0.99,1.51c0,0.81,0.23,1.55,1,1.55
						c0.57,0,0.77-0.38,0.86-0.74H426.26z"/>
					<path class="st4" d="M430.38,39.22c0,1.19-0.56,2.14-1.83,2.14c-1.23,0-1.78-0.95-1.78-2.15c0-1.04,0.56-2.09,1.83-2.09
						C429.81,37.13,430.38,38.09,430.38,39.22z M427.52,39.22c0,0.87,0.35,1.56,1.06,1.56c0.76,0,1.05-0.65,1.05-1.55
						c0-0.82-0.29-1.51-1.06-1.51C427.83,37.72,427.52,38.38,427.52,39.22z"/>
					<path class="st4" d="M431.11,41.31v-4.12h0.94c1.37,2.65,1.57,3.05,1.64,3.25h0.01c-0.04-0.51-0.05-1.18-0.05-1.85v-1.39h0.67
						v4.12h-0.89c-1.46-2.9-1.61-3.2-1.68-3.37h-0.01c0.03,0.52,0.03,1.23,0.03,1.97v1.4H431.11z"/>
					<path class="st4" d="M436.02,37.79h-1.15v-0.61h3.03v0.61h-1.15v3.51h-0.73V37.79z"/>
					<path class="st4" d="M439.08,40.23l-0.33,1.07h-0.72c0.13-0.4,1.14-3.67,1.29-4.12h0.94l1.35,4.12h-0.77l-0.35-1.07H439.08z
						 M440.34,39.63c-0.29-0.91-0.48-1.51-0.57-1.88h-0.01c-0.11,0.47-0.3,1.11-0.54,1.88H440.34z"/>
					<path class="st4" d="M445.25,40.04c-0.11,0.68-0.57,1.32-1.6,1.32c-1.27,0-1.73-0.94-1.73-2.13c0-1.14,0.57-2.11,1.76-2.11
						c1.06,0,1.49,0.66,1.54,1.32h-0.72c-0.09-0.39-0.27-0.73-0.85-0.73c-0.73,0-0.99,0.73-0.99,1.51c0,0.81,0.23,1.55,1,1.55
						c0.57,0,0.77-0.38,0.86-0.74H445.25z"/>
					<path class="st4" d="M446.72,37.79h-1.15v-0.61h3.03v0.61h-1.15v3.51h-0.73V37.79z"/>
				</g>
			</g>
			<rect x="249.82" y="44.32" class="st6" width="16.4" height="0.96"/>
			<path class="st3" d="M321.28,374.74"/>
		</g>
		<path class="st7" d="M197.47,356.56c-0.42,0-0.5,3.63-0.49,4.05c0.19,7.3-0.5,9.58-1.28,18.45c-0.64,7.31-1.23,12.57-3.43,17.98
			c-0.36,0.89-1.87,4.01-1.86,4.16c0.04,0.84-3.23,3.9-4.88,3.97c-2.47,0.11-0.85,0.07-7.36,0.56c-2.14,0.16-2.58-0.31-5.53,0.57
			c-0.11,0.03-1.39,0.72-1.5,0.78c-0.43,0.23-0.59,0.17-1.09,0.81c-0.22,0.28-0.96,1.07-1.07,1.31c30.71-0.24,59.8-0.93,90.51-1.17
			c0.2,0,3.16-1.21,3.3-1.35c16.65-16.36,30.98-32.12,47.63-48.49c0.49-0.48,0.14-1.29-0.54-1.3
			C272.4,356.79,234.93,356.68,197.47,356.56z"/>
	</g>
	<g>
		<g>
			<path class="st8" d="M170.18,130.7l-2.67-9.78h1.05c0.7,2.73,1.99,7.52,2.2,8.66h0.01c0.22-1.07,1.7-6.11,2.37-8.66h1.03
				c0.62,2.3,2.08,7.69,2.26,8.63h0.01c0.31-1.52,1.82-6.44,2.44-8.63h1l-2.93,9.78h-1.1c-0.62-2.28-2.02-7.49-2.22-8.48h-0.01
				c-0.27,1.36-1.67,6.13-2.33,8.48H170.18z"/>
			<path class="st8" d="M187.44,126h-4.93v3.81h5.41l-0.14,0.88h-6.26v-9.78h6.16v0.88h-5.17v3.31h4.93V126z"/>
			<path class="st8" d="M189.76,120.92h1v8.89h5.18l-0.16,0.88h-6.02V120.92z"/>
			<path class="st8" d="M205.03,128.02c-0.45,1.6-1.64,2.8-3.77,2.8c-2.86,0-4.34-2.23-4.34-4.99c0-2.65,1.46-5.05,4.37-5.05
				c2.2,0,3.44,1.24,3.75,2.87h-1c-0.4-1.18-1.17-2-2.8-2c-2.31,0-3.26,2.1-3.26,4.15c0,2.02,0.93,4.14,3.32,4.14
				c1.55,0,2.3-0.84,2.73-1.93H205.03z"/>
			<path class="st8" d="M215.33,125.75c0,2.68-1.46,5.09-4.51,5.09c-2.81,0-4.42-2.22-4.42-5.03c0-2.78,1.59-5.03,4.52-5.03
				C213.64,120.78,215.33,122.87,215.33,125.75z M207.46,125.77c0,2.19,1.17,4.19,3.41,4.19c2.41,0,3.4-1.98,3.4-4.19
				c0-2.2-1.12-4.1-3.39-4.1C208.5,121.66,207.46,123.62,207.46,125.77z"/>
			<path class="st8" d="M225.83,126.35c0-1.87,0.02-3.71,0.06-4.71h-0.05c-0.4,1.44-2.21,5.97-3.39,9.06h-0.93
				c-0.9-2.44-2.76-7.51-3.21-9.07h-0.04c0.07,1.12,0.1,3.35,0.1,5.03v4.04h-0.96v-9.78h1.49c1.24,3.21,2.78,7.38,3.13,8.55h0.03
				c0.23-0.82,2.02-5.43,3.29-8.55h1.46v9.78h-0.99V126.35z"/>
			<path class="st8" d="M235.39,126h-4.93v3.81h5.41l-0.14,0.88h-6.26v-9.78h6.16v0.88h-5.17v3.31h4.93V126z"/>
			<path class="st8" d="M249.67,125.75c0,2.68-1.46,5.09-4.51,5.09c-2.81,0-4.42-2.22-4.42-5.03c0-2.78,1.59-5.03,4.52-5.03
				C247.98,120.78,249.67,122.87,249.67,125.75z M241.8,125.77c0,2.19,1.17,4.19,3.41,4.19c2.41,0,3.4-1.98,3.4-4.19
				c0-2.2-1.12-4.1-3.39-4.1C242.84,121.66,241.8,123.62,241.8,125.77z"/>
			<path class="st8" d="M251.76,130.7v-9.78h1.39c1.47,2.32,4.81,7.51,5.39,8.57h0.02c-0.09-1.34-0.08-2.83-0.08-4.42v-4.15h0.97
				v9.78h-1.29c-1.38-2.2-4.81-7.68-5.47-8.77h-0.02c0.07,1.21,0.06,2.74,0.06,4.51v4.26H251.76z"/>
			<path class="st9" d="M273.43,127.08c0-1.65,0.03-3.5,0.07-4.59h-0.07c-0.46,1.97-1.42,5.19-2.35,8.21h-1.78
				c-0.7-2.64-1.7-6.31-2.13-8.24h-0.07c0.08,1.13,0.12,3.12,0.12,4.78v3.46h-1.9v-9.66h3.11c0.75,2.52,1.6,5.69,1.89,7.13h0.02
				c0.24-1.27,1.3-4.65,2.1-7.13h2.99v9.66h-2.01V127.08z"/>
			<path class="st9" d="M279.86,130.7v-3.41c0-0.11-0.02-0.21-0.08-0.31l-3.33-5.93h2.36c0.75,1.46,1.72,3.4,2.2,4.44
				c0.42-1.01,1.48-3.04,2.21-4.44h2.18l-3.37,5.9c-0.04,0.07-0.08,0.11-0.08,0.31v3.44H279.86z"/>
			<path class="st9" d="M294.6,127.72c-0.39,1.8-1.75,3.11-4.17,3.11c-3.06,0-4.51-2.17-4.51-4.91c0-2.65,1.49-5.02,4.61-5.02
				c2.57,0,3.82,1.51,4.05,3.12h-2.09c-0.2-0.74-0.72-1.49-2.03-1.49c-1.72,0-2.39,1.55-2.39,3.31c0,1.63,0.58,3.35,2.44,3.35
				c1.36,0,1.79-0.91,1.97-1.48H294.6z"/>
			<path class="st9" d="M305.26,125.84c0,2.69-1.61,5-4.75,5c-3.03,0-4.62-2.2-4.62-4.97c0-2.81,1.75-4.97,4.75-4.97
				C303.47,120.9,305.26,122.88,305.26,125.84z M298.05,125.83c0,1.89,0.83,3.31,2.54,3.31c1.86,0,2.51-1.56,2.51-3.28
				c0-1.83-0.75-3.26-2.55-3.26C298.81,122.6,298.05,123.95,298.05,125.83z"/>
			<path class="st9" d="M315.18,127.08c0-1.65,0.03-3.5,0.07-4.59h-0.07c-0.45,1.97-1.42,5.19-2.35,8.21h-1.78
				c-0.7-2.64-1.7-6.31-2.13-8.24h-0.06c0.08,1.13,0.12,3.12,0.12,4.78v3.46h-1.9v-9.66h3.11c0.75,2.52,1.6,5.69,1.89,7.13h0.02
				c0.24-1.27,1.3-4.65,2.1-7.13h3v9.66h-2.01V127.08z"/>
			<path class="st9" d="M319.49,121.04h4c2.05,0,3.44,1.15,3.44,2.99c0,2.1-1.59,3.06-3.49,3.06h-1.86v3.61h-2.09V121.04z
				 M321.58,125.43h1.59c0.97,0,1.65-0.37,1.65-1.36c0-1-0.72-1.37-1.61-1.37h-1.64V125.43z"/>
			<path class="st9" d="M330.44,128.47l-0.75,2.23h-2.05l3.28-9.66h2.62l3.42,9.66h-2.2l-0.79-2.23H330.44z M333.52,126.76
				c-0.69-2.04-1.12-3.34-1.36-4.21h-0.01c-0.24,0.95-0.72,2.47-1.27,4.21H333.52z"/>
			<path class="st9" d="M338.26,130.7v-9.66h2.59c1.21,2.17,3.44,6.08,3.88,7.13h0.03c-0.11-1.01-0.11-2.69-0.11-4.27v-2.86h1.89
				v9.66h-2.45c-1.04-1.89-3.51-6.38-3.99-7.5h-0.03c0.07,0.84,0.09,2.83,0.09,4.56v2.94H338.26z"/>
			<path class="st9" d="M350.95,130.7v-3.41c0-0.11-0.02-0.21-0.08-0.31l-3.33-5.93h2.36c0.75,1.46,1.71,3.4,2.2,4.44
				c0.42-1.01,1.48-3.04,2.21-4.44h2.19l-3.37,5.9c-0.04,0.07-0.08,0.11-0.08,0.31v3.44H350.95z"/>
		</g>
	</g>
	<g>
		<g>
			<path class="st8" d="M139.44,142.72l-1.33-4.89h0.52c0.35,1.37,1,3.76,1.1,4.33h0.01c0.11-0.53,0.85-3.06,1.18-4.33h0.51
				c0.31,1.15,1.04,3.84,1.13,4.31h0.01c0.16-0.76,0.91-3.22,1.22-4.31h0.5l-1.46,4.89h-0.55c-0.31-1.14-1.01-3.74-1.11-4.24h-0.01
				c-0.14,0.68-0.83,3.06-1.17,4.24H139.44z"/>
			<path class="st8" d="M145.21,141.04c0.01,0.82,0.42,1.36,1.06,1.36c0.61,0,0.82-0.33,0.94-0.61h0.48
				c-0.14,0.46-0.52,1.02-1.43,1.02c-1.09,0-1.52-0.91-1.52-1.81c0-1.03,0.51-1.88,1.56-1.88c1.11,0,1.47,0.93,1.47,1.63
				c0,0.1,0,0.2-0.01,0.29H145.21z M147.28,140.67c-0.01-0.64-0.35-1.16-1-1.16c-0.68,0-0.98,0.47-1.05,1.16H147.28z"/>
			<path class="st8" d="M152.9,142.01c0,0.31,0.03,0.61,0.05,0.71h-0.45c-0.03-0.08-0.05-0.24-0.06-0.51
				c-0.12,0.25-0.42,0.59-1.13,0.59c-0.82,0-1.18-0.53-1.18-1.07c0-0.78,0.61-1.14,1.66-1.14c0.27,0,0.5,0,0.64,0v-0.33
				c0-0.33-0.1-0.76-0.84-0.76c-0.66,0-0.76,0.34-0.83,0.62h-0.46c0.04-0.43,0.31-1.01,1.3-1.01c0.83,0,1.29,0.34,1.29,1.13V142.01z
				 M152.44,140.96c-0.12,0-0.42,0-0.64,0c-0.75,0-1.18,0.2-1.18,0.76c0,0.41,0.29,0.7,0.75,0.7c0.94,0,1.06-0.63,1.06-1.33V140.96z
				"/>
			<path class="st8" d="M154,140.16c0-0.55-0.01-0.81-0.01-0.96h0.46c0.01,0.11,0.02,0.36,0.02,0.76c0.2-0.5,0.63-0.82,1.21-0.84
				v0.48c-0.73,0.04-1.21,0.49-1.21,1.35v1.78H154V140.16z"/>
			<path class="st8" d="M156.57,141.04c0.01,0.82,0.42,1.36,1.06,1.36c0.61,0,0.82-0.33,0.94-0.61h0.48
				c-0.14,0.46-0.52,1.02-1.43,1.02c-1.09,0-1.52-0.91-1.52-1.81c0-1.03,0.51-1.88,1.56-1.88c1.11,0,1.47,0.93,1.47,1.63
				c0,0.1,0,0.2-0.01,0.29H156.57z M158.64,140.67c-0.01-0.64-0.35-1.16-1-1.16c-0.68,0-0.98,0.47-1.05,1.16H158.64z"/>
			<path class="st8" d="M164.26,142.01c0,0.31,0.03,0.61,0.05,0.71h-0.45c-0.03-0.08-0.05-0.24-0.06-0.51
				c-0.12,0.25-0.42,0.59-1.13,0.59c-0.82,0-1.18-0.53-1.18-1.07c0-0.78,0.61-1.14,1.66-1.14c0.27,0,0.5,0,0.64,0v-0.33
				c0-0.33-0.1-0.76-0.84-0.76c-0.66,0-0.76,0.34-0.83,0.62h-0.46c0.04-0.43,0.31-1.01,1.3-1.01c0.83,0,1.29,0.34,1.29,1.13V142.01z
				 M163.8,140.96c-0.12,0-0.42,0-0.64,0c-0.75,0-1.18,0.2-1.18,0.76c0,0.41,0.29,0.7,0.75,0.7c0.94,0,1.06-0.63,1.06-1.33V140.96z"
				/>
			<path class="st8" d="M169.98,137.57v4.15c0,0.33,0,0.66,0.01,1.01h-0.45c-0.02-0.09-0.02-0.39-0.03-0.55
				c-0.17,0.4-0.55,0.63-1.15,0.63c-0.91,0-1.46-0.74-1.46-1.81c0-1.08,0.6-1.89,1.57-1.89c0.67,0,0.95,0.28,1.05,0.49v-2.04H169.98
				z M167.39,140.99c0,0.91,0.46,1.41,1.04,1.41c0.88,0,1.1-0.63,1.1-1.5c0-0.85-0.19-1.36-1.05-1.36
				C167.82,139.53,167.39,140.06,167.39,140.99z"/>
			<path class="st8" d="M171.07,137.57h0.47v0.72h-0.47V137.57z M171.07,139.2h0.47v3.52h-0.47V139.2z"/>
			<path class="st8" d="M175.44,142.45c0,1.13-0.48,1.74-1.57,1.74c-0.99,0-1.34-0.55-1.42-1.06h0.48c0.12,0.44,0.48,0.66,0.96,0.66
				c0.86,0,1.09-0.55,1.09-1.41v-0.33c-0.19,0.43-0.52,0.67-1.14,0.67c-0.84,0-1.46-0.69-1.46-1.75c0-1.17,0.67-1.85,1.51-1.85
				c0.7,0,1,0.33,1.09,0.59c0.01-0.18,0.02-0.42,0.02-0.5h0.44c0,0.16-0.01,0.68-0.01,1.02V142.45z M172.87,140.94
				c0,0.8,0.42,1.36,1.05,1.36c0.83,0,1.07-0.55,1.07-1.41c0-0.87-0.25-1.36-1.05-1.36C173.21,139.53,172.87,140.16,172.87,140.94z"
				/>
			<path class="st8" d="M176.53,137.57H177v0.72h-0.47V137.57z M176.53,139.2H177v3.52h-0.47V139.2z"/>
			<path class="st8" d="M177.61,139.2h0.63v-1.07h0.47v1.07h0.81v0.41h-0.81v2.19c0,0.37,0.08,0.57,0.41,0.57
				c0.1,0,0.23-0.01,0.34-0.04v0.38c-0.13,0.05-0.32,0.06-0.48,0.06c-0.5,0-0.74-0.25-0.74-0.83v-2.34h-0.63V139.2z"/>
			<path class="st8" d="M182.73,142.01c0,0.31,0.03,0.61,0.05,0.71h-0.45c-0.03-0.08-0.05-0.24-0.06-0.51
				c-0.12,0.25-0.42,0.59-1.13,0.59c-0.82,0-1.18-0.53-1.18-1.07c0-0.78,0.61-1.14,1.66-1.14c0.27,0,0.5,0,0.64,0v-0.33
				c0-0.33-0.1-0.76-0.84-0.76c-0.66,0-0.76,0.34-0.83,0.62h-0.46c0.04-0.43,0.31-1.01,1.3-1.01c0.83,0,1.29,0.34,1.29,1.13V142.01z
				 M182.28,140.96c-0.12,0-0.42,0-0.64,0c-0.75,0-1.18,0.2-1.18,0.76c0,0.41,0.29,0.7,0.75,0.7c0.94,0,1.06-0.63,1.06-1.33V140.96z
				"/>
			<path class="st8" d="M183.84,142.72v-5.15h0.47v5.15H183.84z"/>
			<path class="st8" d="M189.73,142.01c0,0.31,0.03,0.61,0.05,0.71h-0.45c-0.03-0.08-0.05-0.24-0.06-0.51
				c-0.12,0.25-0.42,0.59-1.13,0.59c-0.82,0-1.18-0.53-1.18-1.07c0-0.78,0.61-1.14,1.66-1.14c0.27,0,0.5,0,0.64,0v-0.33
				c0-0.33-0.1-0.76-0.84-0.76c-0.66,0-0.76,0.34-0.83,0.62h-0.46c0.04-0.43,0.31-1.01,1.3-1.01c0.83,0,1.29,0.34,1.29,1.13V142.01z
				 M189.27,140.96c-0.12,0-0.42,0-0.64,0c-0.75,0-1.18,0.2-1.18,0.76c0,0.41,0.29,0.7,0.75,0.7c0.94,0,1.06-0.63,1.06-1.33V140.96z
				"/>
			<path class="st8" d="M193.62,142.45c0,1.13-0.48,1.74-1.57,1.74c-0.99,0-1.34-0.55-1.42-1.06h0.48c0.12,0.44,0.48,0.66,0.96,0.66
				c0.86,0,1.09-0.55,1.09-1.41v-0.33c-0.19,0.43-0.52,0.67-1.14,0.67c-0.84,0-1.46-0.69-1.46-1.75c0-1.17,0.67-1.85,1.51-1.85
				c0.7,0,1,0.33,1.09,0.59c0.01-0.18,0.02-0.42,0.02-0.5h0.44c0,0.16-0.01,0.68-0.01,1.02V142.45z M191.06,140.94
				c0,0.8,0.42,1.36,1.05,1.36c0.83,0,1.07-0.55,1.07-1.41c0-0.87-0.25-1.36-1.05-1.36C191.39,139.53,191.06,140.16,191.06,140.94z"
				/>
			<path class="st8" d="M194.93,141.04c0.01,0.82,0.42,1.36,1.06,1.36c0.61,0,0.82-0.33,0.94-0.61h0.48
				c-0.14,0.46-0.52,1.02-1.43,1.02c-1.09,0-1.52-0.91-1.52-1.81c0-1.03,0.51-1.88,1.56-1.88c1.11,0,1.47,0.93,1.47,1.63
				c0,0.1,0,0.2-0.01,0.29H194.93z M197,140.67c-0.01-0.64-0.35-1.16-1-1.16c-0.68,0-0.98,0.47-1.05,1.16H197z"/>
			<path class="st8" d="M198.3,140.09c0-0.31,0-0.61-0.01-0.89h0.46c0.02,0.11,0.02,0.53,0.02,0.63c0.15-0.33,0.44-0.71,1.14-0.71
				c0.64,0,1.18,0.38,1.18,1.33v2.28h-0.47v-2.21c0-0.58-0.24-0.97-0.82-0.97c-0.76,0-1.04,0.61-1.04,1.35v1.83h-0.47V140.09z"/>
			<path class="st8" d="M204.87,141.67c-0.16,0.61-0.57,1.14-1.41,1.14c-0.92,0-1.54-0.67-1.54-1.83c0-0.98,0.54-1.86,1.58-1.86
				c0.95,0,1.31,0.67,1.37,1.15h-0.47c-0.1-0.39-0.35-0.74-0.9-0.74c-0.69,0-1.08,0.59-1.08,1.43c0,0.82,0.37,1.44,1.05,1.44
				c0.48,0,0.77-0.25,0.93-0.73H204.87z"/>
			<path class="st8" d="M205.7,139.2c0.65,1.87,0.96,2.75,1.07,3.12h0.01c0.13-0.42,0.4-1.23,1.03-3.12h0.48l-1.3,3.71
				c-0.37,1.04-0.63,1.28-1.3,1.28c-0.12,0-0.23-0.01-0.35-0.02v-0.43c0.1,0.01,0.2,0.02,0.31,0.02c0.48,0,0.65-0.22,0.88-0.89
				l-1.33-3.67H205.7z"/>
			<path class="st8" d="M210.86,139.2c0.48,1.74,0.76,2.74,0.82,3.08h0.01c0.06-0.3,0.36-1.31,0.89-3.08h0.48
				c0.61,2.09,0.79,2.7,0.85,2.99h0.01c0.09-0.38,0.25-0.91,0.85-2.99h0.48l-1.1,3.52h-0.51c-0.36-1.26-0.77-2.64-0.84-2.99h-0.01
				c-0.07,0.36-0.43,1.54-0.86,2.99h-0.54l-1.03-3.52H210.86z"/>
			<path class="st8" d="M215.99,137.57h0.47v0.72h-0.47V137.57z M215.99,139.2h0.47v3.52h-0.47V139.2z"/>
			<path class="st8" d="M217.07,139.2h0.63v-1.07h0.47v1.07h0.81v0.41h-0.81v2.19c0,0.37,0.08,0.57,0.41,0.57
				c0.1,0,0.23-0.01,0.34-0.04v0.38c-0.13,0.05-0.32,0.06-0.48,0.06c-0.5,0-0.74-0.25-0.74-0.83v-2.34h-0.63V139.2z"/>
			<path class="st8" d="M220.15,137.57v2.19c0.19-0.34,0.52-0.64,1.13-0.64c0.53,0,1.19,0.28,1.19,1.36v2.25H222v-2.16
				c0-0.65-0.29-1.02-0.84-1.02c-0.67,0-1.02,0.42-1.02,1.23v1.95h-0.47v-5.15H220.15z"/>
			<path class="st4" d="M225.93,139.1c0.37,1.25,0.7,2.37,0.76,2.7h0.01c0.08-0.37,0.29-1.18,0.72-2.7h1l-1.22,3.73
				c-0.35,1.04-0.64,1.35-1.51,1.35c-0.09,0-0.3-0.01-0.47-0.03v-0.81c0.07,0.01,0.18,0.01,0.26,0.01c0.37,0,0.55-0.13,0.69-0.53
				l-1.32-3.74H225.93z"/>
			<path class="st4" d="M229.7,141.13c0,0.45,0.23,0.9,0.73,0.9c0.42,0,0.54-0.17,0.63-0.39h1c-0.13,0.44-0.52,1.17-1.66,1.17
				c-1.19,0-1.71-0.89-1.71-1.84c0-1.14,0.58-1.95,1.75-1.95c1.24,0,1.67,0.9,1.67,1.81c0,0.12,0,0.2-0.01,0.31H229.7z
				 M231.1,140.51c-0.01-0.42-0.18-0.78-0.66-0.78c-0.48,0-0.67,0.33-0.71,0.78H231.1z"/>
			<path class="st4" d="M235.79,141.79c0,0.34,0.03,0.85,0.05,0.94h-0.96c-0.03-0.07-0.05-0.26-0.05-0.35
				c-0.13,0.2-0.38,0.44-1.02,0.44c-0.87,0-1.24-0.58-1.24-1.14c0-0.83,0.66-1.21,1.73-1.21c0.18,0,0.4,0,0.52,0v-0.22
				c0-0.26-0.09-0.51-0.56-0.51c-0.42,0-0.52,0.18-0.56,0.44h-0.95c0.05-0.64,0.45-1.17,1.55-1.16c0.97,0.01,1.5,0.39,1.5,1.25
				V141.79z M234.82,141.07c-0.08,0-0.28,0-0.41,0c-0.6,0-0.83,0.18-0.83,0.53c0,0.26,0.16,0.48,0.52,0.48
				c0.64,0,0.72-0.44,0.72-0.92V141.07z"/>
			<path class="st4" d="M236.7,140.08c0-0.36,0-0.68-0.01-0.98h0.98c0.01,0.08,0.03,0.44,0.03,0.64c0.16-0.41,0.55-0.72,1.16-0.72
				v0.96c-0.73-0.02-1.16,0.18-1.16,1.17v1.58h-1V140.08z"/>
			<path class="st4" d="M240.2,141.63c0.08,0.29,0.31,0.45,0.69,0.45c0.37,0,0.51-0.13,0.51-0.35c0-0.23-0.16-0.32-0.68-0.45
				c-1.18-0.29-1.37-0.66-1.37-1.17c0-0.53,0.38-1.1,1.47-1.1c1.1,0,1.47,0.6,1.5,1.09h-0.95c-0.03-0.13-0.12-0.39-0.59-0.39
				c-0.33,0-0.44,0.15-0.44,0.31c0,0.18,0.11,0.27,0.7,0.41c1.21,0.28,1.38,0.7,1.38,1.23c0,0.6-0.46,1.15-1.56,1.15
				c-1.1,0-1.56-0.53-1.63-1.17H240.2z"/>
			<path class="st4" d="M248.14,140.9c0,1.1-0.66,1.9-1.8,1.9c-1.12,0-1.78-0.8-1.78-1.88c0-1.12,0.68-1.91,1.83-1.91
				C247.45,139.01,248.14,139.77,248.14,140.9z M245.57,140.91c0,0.7,0.3,1.11,0.78,1.11c0.49,0,0.76-0.41,0.76-1.11
				c0-0.76-0.28-1.12-0.78-1.12C245.88,139.8,245.57,140.15,245.57,140.91z"/>
			<path class="st4" d="M248.96,142.72v-2.87h-0.53v-0.75h0.53v-0.32c0-0.75,0.37-1.24,1.16-1.24c0.17,0,0.38,0.01,0.47,0.04v0.79
				c-0.06-0.01-0.13-0.02-0.21-0.02c-0.3,0-0.41,0.11-0.41,0.5v0.24h0.63v0.75h-0.63v2.87H248.96z"/>
			<path class="st4" d="M253.62,141.13c0,0.45,0.23,0.9,0.73,0.9c0.42,0,0.54-0.17,0.63-0.39h1c-0.13,0.44-0.52,1.17-1.66,1.17
				c-1.19,0-1.71-0.89-1.71-1.84c0-1.14,0.58-1.95,1.75-1.95c1.24,0,1.67,0.9,1.67,1.81c0,0.12,0,0.2-0.01,0.31H253.62z
				 M255.02,140.51c-0.01-0.42-0.18-0.78-0.66-0.78c-0.48,0-0.67,0.33-0.71,0.78H255.02z"/>
			<path class="st4" d="M257.35,139.1c0.38,0.68,0.53,0.95,0.64,1.14h0.01c0.13-0.22,0.35-0.62,0.64-1.14h1.11l-1.17,1.73l1.17,1.9
				h-1.13c-0.33-0.61-0.53-1.01-0.64-1.22h-0.01c-0.1,0.19-0.34,0.66-0.64,1.22h-1.1l1.12-1.77l-1.12-1.86H257.35z"/>
			<path class="st4" d="M261.17,142.4v1.71h-1v-4.14c0-0.29,0-0.58-0.01-0.87h0.97c0.01,0.1,0.03,0.32,0.03,0.45
				c0.16-0.27,0.48-0.54,1.05-0.54c0.81,0,1.44,0.68,1.44,1.81c0,1.28-0.7,1.99-1.58,1.99C261.57,142.81,261.31,142.62,261.17,142.4
				z M262.65,140.86c0-0.66-0.27-1.04-0.75-1.04c-0.57,0-0.77,0.37-0.77,1.1c0,0.69,0.19,1.09,0.73,1.09
				C262.39,142.01,262.65,141.6,262.65,140.86z"/>
			<path class="st4" d="M265.16,141.13c0,0.45,0.23,0.9,0.73,0.9c0.42,0,0.54-0.17,0.63-0.39h1c-0.13,0.44-0.52,1.17-1.66,1.17
				c-1.19,0-1.71-0.89-1.71-1.84c0-1.14,0.58-1.95,1.75-1.95c1.25,0,1.67,0.9,1.67,1.81c0,0.12,0,0.2-0.01,0.31H265.16z
				 M266.56,140.51c-0.01-0.42-0.18-0.78-0.67-0.78c-0.48,0-0.67,0.33-0.71,0.78H266.56z"/>
			<path class="st4" d="M268.24,140.08c0-0.36,0-0.68-0.01-0.98h0.98c0.01,0.08,0.03,0.44,0.03,0.64c0.16-0.41,0.55-0.72,1.16-0.72
				v0.96c-0.73-0.02-1.16,0.18-1.16,1.17v1.58h-1V140.08z"/>
			<path class="st4" d="M271,137.61h1v0.89h-1V137.61z M271,139.1h1v3.63h-1V139.1z"/>
			<path class="st4" d="M273.7,141.13c0,0.45,0.23,0.9,0.73,0.9c0.42,0,0.54-0.17,0.63-0.39h1c-0.13,0.44-0.52,1.17-1.66,1.17
				c-1.19,0-1.71-0.89-1.71-1.84c0-1.14,0.58-1.95,1.75-1.95c1.24,0,1.67,0.9,1.67,1.81c0,0.12,0,0.2-0.01,0.31H273.7z
				 M275.1,140.51c-0.01-0.42-0.17-0.78-0.66-0.78c-0.48,0-0.67,0.33-0.71,0.78H275.1z"/>
			<path class="st4" d="M276.79,140.01c0-0.31,0-0.65-0.01-0.91h0.97c0.02,0.09,0.03,0.34,0.04,0.46c0.12-0.23,0.42-0.55,1.05-0.55
				c0.73,0,1.2,0.49,1.2,1.4v2.31h-1v-2.2c0-0.41-0.14-0.7-0.58-0.7c-0.43,0-0.67,0.24-0.67,0.88v2.02h-1V140.01z"/>
			<path class="st4" d="M284.08,141.55c-0.13,0.6-0.55,1.26-1.63,1.26c-1.13,0-1.71-0.78-1.71-1.87c0-1.07,0.65-1.92,1.76-1.92
				c1.22,0,1.56,0.88,1.58,1.29h-0.98c-0.06-0.29-0.23-0.5-0.62-0.5c-0.46,0-0.72,0.4-0.72,1.1c0,0.77,0.27,1.12,0.71,1.12
				c0.35,0,0.53-0.2,0.62-0.48H284.08z"/>
			<path class="st4" d="M285.51,141.13c0,0.45,0.23,0.9,0.73,0.9c0.42,0,0.54-0.17,0.63-0.39h1c-0.13,0.44-0.52,1.17-1.66,1.17
				c-1.19,0-1.71-0.89-1.71-1.84c0-1.14,0.58-1.95,1.75-1.95c1.24,0,1.67,0.9,1.67,1.81c0,0.12,0,0.2-0.01,0.31H285.51z
				 M286.91,140.51c-0.01-0.42-0.17-0.78-0.66-0.78c-0.48,0-0.67,0.33-0.71,0.78H286.91z"/>
			<path class="st8" d="M293.01,142.01c0,0.31,0.03,0.61,0.05,0.71h-0.45c-0.03-0.08-0.05-0.24-0.06-0.51
				c-0.12,0.25-0.42,0.59-1.13,0.59c-0.82,0-1.18-0.53-1.18-1.07c0-0.78,0.61-1.14,1.66-1.14c0.27,0,0.5,0,0.64,0v-0.33
				c0-0.33-0.1-0.76-0.84-0.76c-0.66,0-0.76,0.34-0.83,0.62h-0.46c0.04-0.43,0.31-1.01,1.3-1.01c0.83,0,1.29,0.34,1.29,1.13V142.01z
				 M292.55,140.96c-0.12,0-0.42,0-0.64,0c-0.75,0-1.18,0.2-1.18,0.76c0,0.41,0.29,0.7,0.75,0.7c0.94,0,1.06-0.63,1.06-1.33V140.96z
				"/>
			<path class="st8" d="M294.12,140.09c0-0.31,0-0.61-0.01-0.89h0.46c0.02,0.11,0.02,0.53,0.02,0.63c0.15-0.33,0.44-0.71,1.14-0.71
				c0.64,0,1.18,0.38,1.18,1.33v2.28h-0.47v-2.21c0-0.58-0.24-0.97-0.82-0.97c-0.76,0-1.04,0.61-1.04,1.35v1.83h-0.47V140.09z"/>
			<path class="st8" d="M300.82,137.57v4.15c0,0.33,0,0.66,0.01,1.01h-0.45c-0.02-0.09-0.02-0.39-0.03-0.55
				c-0.17,0.4-0.55,0.63-1.15,0.63c-0.91,0-1.46-0.74-1.46-1.81c0-1.08,0.6-1.89,1.57-1.89c0.67,0,0.95,0.28,1.05,0.49v-2.04H300.82
				z M298.23,140.99c0,0.91,0.46,1.41,1.04,1.41c0.88,0,1.1-0.63,1.1-1.5c0-0.85-0.19-1.36-1.05-1.36
				C298.67,139.53,298.23,140.06,298.23,140.99z"/>
			<path class="st8" d="M303.86,139.2c0.48,1.74,0.76,2.74,0.82,3.08h0.01c0.06-0.3,0.36-1.31,0.89-3.08h0.48
				c0.61,2.09,0.79,2.7,0.85,2.99h0.01c0.09-0.38,0.25-0.91,0.85-2.99h0.48l-1.1,3.52h-0.51c-0.36-1.26-0.77-2.64-0.84-2.99h-0.01
				c-0.07,0.36-0.43,1.54-0.86,2.99h-0.54l-1.03-3.52H303.86z"/>
			<path class="st8" d="M308.99,137.57h0.47v0.72h-0.47V137.57z M308.99,139.2h0.47v3.52h-0.47V139.2z"/>
			<path class="st8" d="M310.07,139.2h0.63v-1.07h0.47v1.07h0.81v0.41h-0.81v2.19c0,0.37,0.08,0.57,0.41,0.57
				c0.1,0,0.23-0.01,0.34-0.04v0.38c-0.13,0.05-0.32,0.06-0.48,0.06c-0.5,0-0.74-0.25-0.74-0.83v-2.34h-0.63V139.2z"/>
			<path class="st8" d="M313.15,137.57v2.19c0.19-0.34,0.52-0.64,1.13-0.64c0.53,0,1.19,0.28,1.19,1.36v2.25H315v-2.16
				c0-0.65-0.29-1.02-0.84-1.02c-0.67,0-1.01,0.42-1.01,1.23v1.95h-0.47v-5.15H313.15z"/>
			<path class="st4" d="M319.07,141.13c0,0.45,0.23,0.9,0.73,0.9c0.42,0,0.54-0.17,0.63-0.39h1c-0.13,0.44-0.52,1.17-1.66,1.17
				c-1.19,0-1.71-0.89-1.71-1.84c0-1.14,0.58-1.95,1.75-1.95c1.25,0,1.67,0.9,1.67,1.81c0,0.12,0,0.2-0.01,0.31H319.07z
				 M320.47,140.51c-0.01-0.42-0.18-0.78-0.67-0.78c-0.48,0-0.67,0.33-0.71,0.78H320.47z"/>
			<path class="st4" d="M322.79,139.1c0.38,0.68,0.53,0.95,0.64,1.14h0.01c0.13-0.22,0.35-0.62,0.64-1.14h1.11l-1.18,1.73l1.17,1.9
				h-1.14c-0.33-0.61-0.53-1.01-0.64-1.22h-0.01c-0.1,0.19-0.34,0.66-0.64,1.22h-1.1l1.12-1.77l-1.12-1.86H322.79z"/>
			<path class="st4" d="M325.27,139.1h0.56v-0.98h1v0.98h0.71v0.75h-0.71v1.79c0,0.28,0.08,0.38,0.38,0.38c0.06,0,0.15,0,0.23-0.01
				v0.69c-0.2,0.07-0.47,0.07-0.67,0.07c-0.71,0-0.94-0.38-0.94-1.01v-1.91h-0.56V139.1z"/>
			<path class="st4" d="M328.16,140.08c0-0.36,0-0.68-0.01-0.98h0.98c0.01,0.08,0.03,0.44,0.03,0.64c0.16-0.41,0.55-0.72,1.16-0.72
				v0.96c-0.73-0.02-1.16,0.18-1.16,1.17v1.58h-1V140.08z"/>
			<path class="st4" d="M333.92,141.79c0,0.34,0.03,0.85,0.05,0.94h-0.96c-0.03-0.07-0.05-0.26-0.05-0.35
				c-0.13,0.2-0.38,0.44-1.02,0.44c-0.87,0-1.24-0.58-1.24-1.14c0-0.83,0.66-1.21,1.73-1.21c0.18,0,0.4,0,0.52,0v-0.22
				c0-0.26-0.09-0.51-0.56-0.51c-0.42,0-0.52,0.18-0.56,0.44h-0.95c0.05-0.64,0.45-1.17,1.55-1.16c0.97,0.01,1.5,0.39,1.5,1.25
				V141.79z M332.95,141.07c-0.08,0-0.28,0-0.41,0c-0.6,0-0.83,0.18-0.83,0.53c0,0.26,0.16,0.48,0.52,0.48
				c0.64,0,0.72-0.44,0.72-0.92V141.07z"/>
			<path class="st4" d="M338.2,140.9c0,1.1-0.66,1.9-1.8,1.9c-1.12,0-1.78-0.8-1.78-1.88c0-1.12,0.68-1.91,1.83-1.91
				C337.51,139.01,338.2,139.77,338.2,140.9z M335.64,140.91c0,0.7,0.3,1.11,0.78,1.11c0.49,0,0.76-0.41,0.76-1.11
				c0-0.76-0.28-1.12-0.78-1.12C335.94,139.8,335.64,140.15,335.64,140.91z"/>
			<path class="st4" d="M338.89,140.08c0-0.36,0-0.68-0.01-0.98h0.98c0.01,0.08,0.03,0.44,0.03,0.64c0.16-0.41,0.55-0.72,1.16-0.72
				v0.96c-0.73-0.02-1.16,0.18-1.16,1.17v1.58h-1V140.08z"/>
			<path class="st4" d="M344.97,137.61v4.12c0,0.33,0,0.66,0.01,1h-0.96c-0.02-0.11-0.04-0.3-0.05-0.38
				c-0.17,0.29-0.49,0.46-1.03,0.46c-0.92,0-1.5-0.74-1.5-1.87c0-1.12,0.62-1.93,1.65-1.93c0.52,0,0.8,0.18,0.88,0.35v-1.75H344.97z
				 M342.47,140.92c0,0.71,0.28,1.09,0.77,1.09c0.69,0,0.77-0.58,0.77-1.1c0-0.62-0.09-1.09-0.74-1.09
				C342.74,139.82,342.47,140.23,342.47,140.92z"/>
			<path class="st4" d="M345.86,137.61h1v0.89h-1V137.61z M345.86,139.1h1v3.63h-1V139.1z"/>
			<path class="st4" d="M347.77,140.01c0-0.31,0-0.65-0.01-0.91h0.97c0.02,0.09,0.03,0.34,0.04,0.46c0.12-0.23,0.42-0.55,1.05-0.55
				c0.73,0,1.2,0.49,1.2,1.4v2.31h-1v-2.2c0-0.41-0.14-0.7-0.58-0.7c-0.43,0-0.67,0.24-0.67,0.88v2.02h-1V140.01z"/>
			<path class="st4" d="M354.92,141.79c0,0.34,0.03,0.85,0.05,0.94h-0.96c-0.03-0.07-0.05-0.26-0.05-0.35
				c-0.13,0.2-0.38,0.44-1.02,0.44c-0.88,0-1.24-0.58-1.24-1.14c0-0.83,0.66-1.21,1.73-1.21c0.18,0,0.4,0,0.52,0v-0.22
				c0-0.26-0.09-0.51-0.56-0.51c-0.42,0-0.52,0.18-0.56,0.44h-0.95c0.05-0.64,0.45-1.17,1.55-1.16c0.97,0.01,1.5,0.39,1.5,1.25
				V141.79z M353.95,141.07c-0.08,0-0.28,0-0.41,0c-0.6,0-0.83,0.18-0.83,0.53c0,0.26,0.16,0.48,0.52,0.48
				c0.64,0,0.72-0.44,0.72-0.92V141.07z"/>
			<path class="st4" d="M355.83,140.08c0-0.36,0-0.68-0.01-0.98h0.98c0.01,0.08,0.03,0.44,0.03,0.64c0.16-0.41,0.55-0.72,1.16-0.72
				v0.96c-0.73-0.02-1.16,0.18-1.16,1.17v1.58h-1V140.08z"/>
			<path class="st4" d="M359.25,139.1c0.38,1.25,0.7,2.37,0.76,2.7h0.01c0.08-0.37,0.29-1.18,0.72-2.7h1l-1.22,3.73
				c-0.35,1.04-0.64,1.35-1.51,1.35c-0.09,0-0.3-0.01-0.47-0.03v-0.81c0.07,0.01,0.18,0.01,0.26,0.01c0.37,0,0.55-0.13,0.69-0.53
				l-1.32-3.74H359.25z"/>
			<path class="st4" d="M364.91,142.4v1.71h-1v-4.14c0-0.29,0-0.58-0.01-0.87h0.97c0.01,0.1,0.03,0.32,0.03,0.45
				c0.16-0.27,0.48-0.54,1.05-0.54c0.81,0,1.44,0.68,1.44,1.81c0,1.28-0.7,1.99-1.58,1.99C365.32,142.81,365.05,142.62,364.91,142.4
				z M366.39,140.86c0-0.66-0.27-1.04-0.75-1.04c-0.57,0-0.77,0.37-0.77,1.1c0,0.69,0.19,1.09,0.73,1.09
				C366.13,142.01,366.39,141.6,366.39,140.86z"/>
			<path class="st4" d="M368.9,141.13c0,0.45,0.23,0.9,0.73,0.9c0.42,0,0.54-0.17,0.63-0.39h1c-0.13,0.44-0.52,1.17-1.66,1.17
				c-1.19,0-1.71-0.89-1.71-1.84c0-1.14,0.58-1.95,1.75-1.95c1.24,0,1.67,0.9,1.67,1.81c0,0.12,0,0.2-0.01,0.31H368.9z
				 M370.3,140.51c-0.01-0.42-0.17-0.78-0.66-0.78c-0.48,0-0.67,0.33-0.71,0.78H370.3z"/>
			<path class="st4" d="M375.36,140.9c0,1.1-0.66,1.9-1.8,1.9c-1.12,0-1.78-0.8-1.78-1.88c0-1.12,0.68-1.91,1.83-1.91
				C374.67,139.01,375.36,139.77,375.36,140.9z M372.79,140.91c0,0.7,0.3,1.11,0.78,1.11c0.49,0,0.76-0.41,0.76-1.11
				c0-0.76-0.28-1.12-0.78-1.12C373.1,139.8,372.79,140.15,372.79,140.91z"/>
			<path class="st4" d="M377.04,142.4v1.71h-1v-4.14c0-0.29,0-0.58-0.01-0.87h0.97c0.01,0.1,0.03,0.32,0.03,0.45
				c0.16-0.27,0.48-0.54,1.05-0.54c0.81,0,1.44,0.68,1.44,1.81c0,1.28-0.7,1.99-1.58,1.99C377.45,142.81,377.18,142.62,377.04,142.4
				z M378.52,140.86c0-0.66-0.27-1.04-0.75-1.04c-0.57,0-0.77,0.37-0.77,1.1c0,0.69,0.19,1.09,0.73,1.09
				C378.26,142.01,378.52,141.6,378.52,140.86z"/>
			<path class="st4" d="M380.23,142.72v-5.11h1v5.11H380.23z"/>
			<path class="st4" d="M382.93,141.13c0,0.45,0.23,0.9,0.73,0.9c0.42,0,0.54-0.17,0.63-0.39h1c-0.13,0.44-0.52,1.17-1.66,1.17
				c-1.19,0-1.71-0.89-1.71-1.84c0-1.14,0.58-1.95,1.75-1.95c1.25,0,1.67,0.9,1.67,1.81c0,0.12,0,0.2-0.01,0.31H382.93z
				 M384.33,140.51c-0.01-0.42-0.18-0.78-0.67-0.78c-0.48,0-0.67,0.33-0.71,0.78H384.33z"/>
		</g>
	</g>
</g>
</svg>
