<?xml version="1.0" encoding="utf-8"?>
<!-- Generator: Adobe Illustrator 23.0.3, SVG Export Plug-In . SVG Version: 6.00 Build 0)  -->
<svg version="1.1" id="Слой_1" xmlns="http://www.w3.org/2000/svg" xmlns:xlink="http://www.w3.org/1999/xlink" x="0px" y="0px"
	 viewBox="0 0 150 150" style="enable-background:new 0 0 150 150;" xml:space="preserve">
<style type="text/css">
	.st0{fill:none;stroke:#FCAC45;stroke-width:5;stroke-miterlimit:10;}
	.st1{fill:none;stroke:#000000;stroke-width:3;stroke-linecap:round;stroke-linejoin:round;stroke-miterlimit:10;}
	.st2{fill:#FFFFFF;}
	.st3{fill:#C3C3C3;}
	.st4{fill:none;stroke:#000000;stroke-width:0.25;stroke-miterlimit:10;}
	.st5{font-family:'MyriadPro-Regular';}
	.st6{font-size:8.6708px;}
</style>
<g>
	<circle class="st0" cx="75.07" cy="75.67" r="59.22"/>
	<rect x="59.85" y="52.6" class="st1" width="31.05" height="51.51"/>
	<rect x="59.85" y="52.6" width="31.05" height="6.42"/>
	<rect x="59.85" y="97.69" width="31.05" height="6.42"/>
	<circle class="st2" cx="75.38" cy="101.32" r="1.8"/>
	<rect x="64.36" y="66.4" width="1.89" height="1.89"/>
	<rect x="67.42" y="64.15" width="1.89" height="4.14"/>
	<rect x="70.39" y="61.27" width="1.89" height="7.02"/>
	<rect x="75.38" y="62.26" width="9.86" height="1.26"/>
	<rect x="75.38" y="65.5" width="9.86" height="1.85"/>
	<rect x="75.38" y="71.26" width="9.86" height="1.89"/>
	<rect x="75.38" y="75.22" width="9.5" height="1.17"/>
	<rect x="75.38" y="80.17" width="9.86" height="0.9"/>
	<rect x="75.38" y="84.22" width="9.86" height="0.99"/>
	<rect x="75.38" y="89.17" width="9.86" height="0.63"/>
	<rect x="75.38" y="92.32" width="9.86" height="1.71"/>
	<g>
		<path d="M71.46,74.04c0,1.71-1.39,3.11-3.1,3.11s-3.1-1.39-3.1-3.11s1.39-3.1,3.1-3.1S71.46,72.33,71.46,74.04z"/>
		<path class="st3" d="M68.28,73.95l-0.3-3.09l0,0c-1.26,0.15-2.19,0.92-2.61,2.02l0,0L68.28,73.95z"/>
	</g>
	<polyline class="st4" points="64.13,94.19 66.87,90.77 69.65,92.81 72.83,89.96 	"/>
	<rect x="63.69" y="93.75" transform="matrix(0.7071 0.7071 -0.7071 0.7071 85.3839 -17.7566)" width="0.88" height="0.88"/>
	<rect x="66.38" y="90.44" transform="matrix(0.7071 0.7071 -0.7071 0.7071 83.8316 -20.6283)" width="0.88" height="0.88"/>
	<rect x="69.21" y="92.26" transform="matrix(0.7071 0.7071 -0.7071 0.7071 85.9431 -22.0979)" width="0.88" height="0.88"/>
	<rect x="72.31" y="89.52" transform="matrix(0.7071 0.7071 -0.7071 0.7071 84.919 -25.0943)" width="0.88" height="0.88"/>
	<text transform="matrix(1 0 0 1 66.245 86.5832)" class="st5 st6">$</text>
</g>
</svg>
