<?xml version="1.0" encoding="utf-8"?>
<!-- Generator: Adobe Illustrator 23.0.6, SVG Export Plug-In . SVG Version: 6.00 Build 0)  -->
<svg version="1.1" id="Isolation_Mode" xmlns="http://www.w3.org/2000/svg" xmlns:xlink="http://www.w3.org/1999/xlink" x="0px"
	 y="0px" viewBox="0 0 750 500" style="enable-background:new 0 0 750 500;" xml:space="preserve">
<style type="text/css">
	.st0{fill-rule:evenodd;clip-rule:evenodd;fill:#5C87BB;}
</style>
<g>
	<path class="st0" d="M750,500H454.26c-6.05-8.12-9.66-32.48,18.33-41.33c16.28-5.15,34.85-4.49,47.14-16.46
		c16.45-16.02,2.11-51.96,22.18-63.11c29.48-16.37,70.79,13.97,103.68-5.38c23.6-13.89,2.16-71.67,104.41-51.64V500z"/>
	<path class="st0" d="M0.09,1.02h410.85c5.69,39.05-22.77,65.08-64.89,67.51c-42.12,2.44-58.66-10.48-97.02,1.54
		c-43.11,13.51-35.36,92.29-110.29,95.72c-49.99,2.29-91.77-56.86-138.65,0.08V1.02z"/>
</g>
</svg>
