<?xml version="1.0" encoding="utf-8"?>
<!-- Generator: Adobe Illustrator 23.0.6, SVG Export Plug-In . SVG Version: 6.00 Build 0)  -->
<svg version="1.1" id="Layer_1" xmlns="http://www.w3.org/2000/svg" xmlns:xlink="http://www.w3.org/1999/xlink" x="0px" y="0px"
	 viewBox="0 0 138 139.01" style="enable-background:new 0 0 138 139.01;" xml:space="preserve">
<style type="text/css">
	.st0{fill:#5582B8;}
</style>
<path class="st0" d="M1.66,85.97c10.33-0.01,20.66-0.02,31-0.05c0.71,0,0.89,0.25,0.86,0.91c-0.05,1.13,0.03,2.27-0.03,3.4
	c-0.04,0.76,0.23,0.96,0.96,0.95c3.23-0.04,6.45,0.04,9.68-0.03c4-0.09,7.76,0.78,11.36,2.5c4.16,1.98,8.33,3.91,12.78,6
	c-0.41-0.67-0.67-1.13-0.95-1.57c-11.59-18.26-1.97-42.44,18.93-47.55c1.7-0.42,3.41-0.67,5.16-0.78c0.43-0.03,0.89,0.02,0.89-0.66
	c-0.02-2.73-0.01-5.46-0.01-8.34c-2.64,1.26-5.18,2.2-7.92,2.63c-5.71,0.88-10.38-0.91-14.09-5.28c-2.4-2.83-3.97-6.11-5.14-9.6
	c-0.15-0.44-0.3-0.82,0.24-1.1c4.33-2.27,8.81-4.06,13.82-3.58c4.98,0.47,8.65,3.18,11.33,7.3c0.53,0.82,1.03,1.65,1.71,2.77
	c0-1.22,0.05-2.11-0.01-3c-0.28-4.25-0.07-8.45,1.09-12.57c2.27-8.1,7.71-12.76,15.81-14.54c1.25-0.27,2.56-0.23,3.75-0.78
	c1.83,0,3.66,0,5.5,0c0.92,0.29,1.87,0.06,2.8,0.13c0.62-0.07,0.87,0.28,0.92,0.83c0.73,7.3,0,14.32-4.38,20.5
	c-2.76,3.89-6.71,6.12-11.25,7.41c-3.01,0.86-6.09,1.05-9.17,1.3c-1.51,0.12-1.58,0.13-1.59,1.56c-0.01,4.23,0.03,8.46-0.03,12.69
	c-0.01,1.12,0.42,1.52,1.48,1.66c5.86,0.8,11.22,2.86,15.88,6.58c6.63,5.29,10.72,12.07,11.94,20.51
	c1.09,7.55-0.47,14.56-4.48,21.25c1.66-0.63,3.1-1.38,4.62-1.92c3.72-1.33,7.74,0.18,9.74,3.56c0.49,0.82,0.47,1.75,0.78,2.59
	c0,0.87,0,1.74,0,2.62c-0.27,3.11-2.16,5.04-4.75,6.38c-6.2,3.19-12.36,6.47-18.55,9.7c-9.85,5.15-19.71,10.29-29.53,15.51
	c-1.09,0.58-2.26,0.86-3.44,1.12c-3.05,0-6.11,0-9.16,0c-3.31-0.62-6.46-1.75-9.64-2.83c-5.78-1.96-11.61-3.79-17.4-5.71
	c-0.96-0.32-1.94-0.48-2.95-0.47c-1.7,0.02-3.4,0.03-5.1,0c-0.98-0.02-1.46,0.35-1.41,1.37c0.03,0.65,0.02,1.31-0.01,1.96
	c-0.06,1.55-0.34,1.84-1.85,1.9c-0.26,0.01-0.52,0.01-0.78,0.01c-7.15,0-14.3,0-21.45,0c-0.22,0-0.44,0-0.65,0
	c-1.66-0.05-1.99-0.39-1.98-2.02c0.01-1.54,0.35-1.91,1.95-1.92c5.23-0.03,10.46-0.01,15.7-0.01c1.26,0,2.53,0.02,3.79-0.01
	c1.43-0.03,1.57-0.16,1.57-1.59c0.01-12.16,0.01-24.33,0-36.49c0-1.53-0.14-1.65-1.78-1.65c-8.15-0.01-16.31,0-24.46-0.01
	c-0.73,0-1.5,0.13-2.13-0.41C1.66,88.07,1.66,87.02,1.66,85.97z M118.38,3.01c0.95,0.54,1.96,0.18,2.95,0.22
	c-0.01-0.08-0.03-0.15-0.07-0.22C120.3,3.01,119.34,3.01,118.38,3.01z M112.57,101.41c0.46-0.2,0.8-0.52,1.13-0.87
	c6.36-6.6,8.96-14.48,7.84-23.54c-1.93-15.67-17.09-26.99-32.6-24.18c-10.58,1.92-18.09,7.99-21.83,18.1
	C63.35,81.1,65.29,90.52,72,99c0.53,0.67,1.1,0.96,1.98,0.95c4.97-0.05,9.94-0.04,14.91-0.02c4.97,0.03,8.11,3.46,7.72,8.55
	C102.02,106.08,107.29,103.74,112.57,101.41z M33.29,108.9c0,4.67,0.03,9.33-0.02,14c-0.01,0.94,0.26,1.15,1.16,1.13
	c2.35-0.07,4.71-0.01,7.06-0.03c0.8-0.01,1.54,0.14,2.29,0.39c8.78,2.94,17.57,5.84,26.35,8.77c4.23,1.41,8.27,1.05,12.24-1.03
	c15.79-8.27,31.6-16.49,47.41-24.73c2.4-1.25,3.47-3.96,2.43-6.16c-1.13-2.4-3.81-3.29-6.43-2.14
	c-10.78,4.74-21.56,9.48-32.33,14.24c-1.66,0.73-3.35,1.1-5.18,1.09c-7.24-0.04-14.48-0.02-21.72-0.02c-2.07,0-3.61,1.03-4.31,2.93
	c-0.16,0.45-0.33,0.63-0.8,0.6c-0.48-0.04-0.96-0.05-1.44,0c-0.95,0.11-1.07-0.26-0.87-1.11c0.66-2.9,3.84-5.39,7.06-5.39
	c7.54-0.01,15.09-0.01,22.63,0.01c1.42,0,2.69-0.27,3.66-1.38c1.17-1.34,1.4-2.89,0.74-4.51c-0.7-1.73-2.09-2.49-3.92-2.49
	c-6.41,0-12.82-0.01-19.23,0.01c-0.85,0-1.6-0.18-2.37-0.55c-4.7-2.25-9.43-4.46-14.14-6.69c-1.98-0.93-4.05-1.58-6.24-1.8
	c-4.26-0.42-8.54-0.06-12.81-0.22c-0.96-0.03-1.25,0.19-1.23,1.2C33.32,99.65,33.29,104.28,33.29,108.9
	C33.29,108.9,33.29,108.9,33.29,108.9z M104.42,28.87c5.16-1.14,9.44-3.52,11.85-8.5c2.07-4.26,2.58-8.81,2.45-13.48
	c-0.02-0.67-0.3-0.75-0.87-0.76c-1.92-0.02-3.84,0.03-5.74,0.29c-8.99,1.23-14.4,5.11-16.31,14.6c-0.26,1.28-0.57,2.57-0.39,4.11
	c2.82-3.92,6.03-7.13,9.97-9.57c1.81-1.12,1.77-1.1,2.82,0.79c0.38,0.7,0.31,1.01-0.41,1.38c-1.44,0.73-2.74,1.68-3.99,2.71
	c-3.09,2.53-5.61,5.54-7.69,9.17C99.02,29.62,101.74,29.46,104.42,28.87z M79.1,26.93c-3.57-0.31-6.9,0.61-10.14,1.99
	c-0.65,0.28-0.39,0.67-0.24,1.04c1.05,2.61,2.45,4.99,4.47,6.98c1.84,1.8,4.03,2.95,6.59,3.12c3.33,0.23,6.53-0.46,9.76-1.89
	c-3.1-2.16-6.34-3.55-9.93-3.99c-1.07-0.13-1.49-0.44-1.26-1.5c0.05-0.21,0.05-0.44,0.04-0.65c-0.06-0.88,0.22-1.2,1.19-1.06
	c3.08,0.46,6.01,1.34,8.85,2.69C86.25,30.13,83.54,27.32,79.1,26.93z M15.77,120.22c-1.26-0.1-1.4,0.42-1.35,1.46
	c0.08,1.72,0.03,1.62,1.96,1.76c1.44,0.1,1.27-0.7,1.21-1.34C17.59,120.25,17.58,120.35,15.77,120.22z M24.95,121.37
	c0.1-1.84-1.21-0.96-1.94-1.1c-1.82-0.35-1.07,1.07-1.24,1.88c-0.28,1.37,0.54,1.38,1.3,1.25
	C24.93,123.39,24.84,123.39,24.95,121.37z M95.26,64.53c0.01-0.36-0.13-0.51-0.51-0.59c-2.16-0.42-2.63-0.06-2.63,2.1
	c0,0.31-0.04,0.62,0.01,0.91c0.11,0.69-0.19,1.01-0.85,1.17c-1.2,0.29-2.3,0.83-3.19,1.69c-1.86,1.78-2.57,3.97-1.75,6.43
	c0.95,2.84,3.15,4.27,6.02,4.75c0.81,0.13,1.66,0.1,2.46,0.28c2.22,0.48,3.53,2.29,3.05,4.12c-0.44,1.64-2.19,2.85-4.23,2.9
	c-1.89,0.05-3.9-1.09-4.28-2.61c-0.22-0.88-0.58-1.14-1.4-1.02c-0.39,0.05-0.79,0.04-1.18,0.01c-0.64-0.06-0.82,0.14-0.71,0.81
	c0.42,2.57,1.9,4.42,4.29,5.13c1.68,0.5,1.86,1.35,1.78,2.78c-0.1,1.76-0.01,1.65,1.63,1.79c1.33,0.11,1.69-0.38,1.51-1.59
	c-0.07-0.47,0.04-0.96-0.02-1.44c-0.1-0.77,0.24-1.02,0.96-1.22c3.07-0.86,5.08-3.35,5.12-6.19c0.04-2.81-1.96-5.37-4.95-6.36
	c-1.09-0.36-2.23-0.37-3.35-0.5c-2.61-0.28-4.19-2.34-3.47-4.45c0.55-1.59,2.26-2.65,4.26-2.64c1.98,0.01,3.74,1.1,4.18,2.72
	c0.2,0.72,0.45,1.04,1.21,0.92c0.43-0.07,0.87-0.05,1.31,0c0.77,0.08,0.86-0.27,0.73-0.93c-0.49-2.54-1.97-4.3-4.37-5.09
	c-1.36-0.45-1.99-1.02-1.63-2.2C95.26,65.49,95.25,65.01,95.26,64.53z"/>
</svg>
