<?xml version="1.0" encoding="utf-8"?>
<!-- Generator: Adobe Illustrator 23.0.6, SVG Export Plug-In . SVG Version: 6.00 Build 0)  -->
<svg version="1.1" id="Layer_1" xmlns="http://www.w3.org/2000/svg" xmlns:xlink="http://www.w3.org/1999/xlink" x="0px" y="0px"
	 viewBox="0 0 144 115" style="enable-background:new 0 0 144 115;" xml:space="preserve">
<style type="text/css">
	.st0{fill:#5582B8;}
</style>
<path class="st0" d="M2.02,65.28c0.36-0.07,0.45-0.41,0.63-0.65c1.32-1.74,1.33-1.75,3.15-0.43c4.74,3.44,9.46,6.9,14.19,10.36
	c1.52,1.11,2.32,1.02,3.38-0.49c5.93-8.49,11.85-16.99,17.76-25.5c0.91-1.31,0.5-2.45-1.28-3.46c-3.49-1.98-6.86-4.14-10.19-6.35
	c-0.39-0.26-1.27-0.37-1-1.01c0.33-0.81,0.95-1.51,1.53-2.19c0.18-0.22,0.47,0.15,0.68,0.29c3.5,2.21,7,4.43,10.49,6.66
	c0.88,0.56,1.8,1.17,2.24,2.11c0.49,1.05,1.17,1.2,2.22,1.2c17.14-0.03,34.28-0.03,51.41-0.01c0.82,0,1.31-0.2,1.7-0.94
	c0.61-1.13,1.6-1.92,2.69-2.61c3.28-2.06,6.56-4.11,9.79-6.24c0.8-0.53,1.22-0.52,1.86,0.22c1.53,1.79,1.57,1.74-0.41,2.97
	c-3.17,1.97-6.34,3.94-9.51,5.93c-2,1.25-2.15,2.09-0.83,4.04c5.65,8.3,11.3,16.6,16.95,24.9c0.9,1.33,1.32,1.46,2.77,0.75
	c0.48-0.23,0.92-0.56,1.35-0.88c4.62-3.45,9.24-6.9,13.98-10.19c0.41-0.28,0.82-0.55,1.23-0.83c1.73,2.42,1.72,2.4-0.61,4.11
	c-4.5,3.31-8.99,6.63-13.47,9.97c-1.27,0.95-2.67,1.46-4.26,1.47c-1.5,0.01-2.73-0.57-3.58-1.81c-6.09-8.93-12.2-17.84-18.2-26.83
	c-0.58-0.87-1.06-1.09-1.98-1.09c-10.64,0.03-21.29,0.02-31.93,0.01c-0.59,0-1.13,0.06-1.68,0.37c-3.75,2.13-7.52,4.24-11.3,6.32
	c-0.58,0.32-0.84,0.65-0.83,1.34c0.04,3.07,0.06,6.13-0.01,9.2c-0.02,0.99,0.41,1.02,1.12,0.86c1.96-0.45,3.38-1.62,4.36-3.35
	c0.92-1.63,1.41-3.4,1.65-5.24c0.11-0.88,0.38-1.27,1.42-1.26c4.78,0.07,9.56,0.05,14.34,0.01c0.89-0.01,1.19,0.22,1.35,1.14
	c0.67,3.88,3.74,6.5,7.81,6.81c0.36,0.03,0.73,0.09,1.08,0.03c3.43-0.53,6.17,0.81,8.93,2.76c6.62,4.68,13.42,9.09,20.13,13.63
	c2.69,1.82,3.88,4.4,3.31,7.58c-0.56,3.11-2.52,5.14-5.6,5.92c-2.03,0.52-4.02,0.24-5.87-0.84c-0.41-0.24-0.78-0.62-1.39-0.66
	c-0.19,2.9-1.48,5.12-4.11,6.47c-2.65,1.36-5.2,1.12-7.76-0.63c-0.3,3.54-1.87,6.02-5.15,7.17c-3.29,1.16-6.07-0.1-8.71-2.16
	c-0.33,4.07-2.42,6.42-6.18,7.38c-1.52,0.39-2.95,0.17-4.33-0.46c-0.53-0.24-0.84-0.35-1.37,0.11c-3.91,3.45-9.13,1.91-10.66-3.11
	c-0.18-0.61-0.22-1.12-1.19-0.91c-3.71,0.83-7.63-1.91-8.24-5.74c-0.13-0.82-0.27-1.1-1.2-1.04c-4.37,0.27-7.33-2.14-7.97-6.48
	c-0.12-0.79-0.43-0.62-0.93-0.6c-2.92,0.12-5.17-1.16-6.69-3.57c-1.45-2.3-1.16-4.73,0.04-7.07c0.18-0.36,0.39-0.81,0.7-0.97
	c1.76-0.88,1.14-2.01,0.48-3.25c-0.72-1.34-1.72-2.41-2.8-3.44c-0.42-0.4-0.73-0.49-1.02,0.1c-0.04,0.08-0.1,0.15-0.15,0.23
	c-2.58,3.68-5.46,4.07-9.08,1.27c-2.46-1.9-4.92-3.81-7.43-5.64c-2.58-1.88-5.22-3.67-7.83-5.51C2.02,65.47,2.02,65.37,2.02,65.28z
	 M43.76,10.05c-0.8-0.01-1.2,0.15-1.06,1.03c0.05,0.35,0.05,0.73,0,1.08c-0.15,0.97,0.26,1.19,1.19,1.18
	c3.34-0.06,6.67-0.02,10.01-0.02c1.1,0,2.19,0,3.09,0c-1.25,1.35-2.46,2.74-3.75,4.05c-1.38,1.4-1.36,1.33,0.06,2.74
	c0.7,0.7,1.08,0.7,1.78-0.03c2.53-2.63,5.13-5.2,7.74-7.76c0.56-0.55,0.66-0.83,0.03-1.44c-2.37-2.28-4.67-4.64-7-6.97
	c-1.69-1.69-1.66-1.66-3.37,0.07c-0.57,0.58-0.45,0.85,0.06,1.37c1.51,1.55,2.94,3.18,4.35,4.72
	C52.66,10.07,48.21,10.09,43.76,10.05z M85.6,9.67c1.17-1.13,2.33-2.26,3.5-3.39c1.78-1.72,1.76-1.69-0.09-3.44
	c-0.48-0.45-0.73-0.46-1.18,0c-2.72,2.76-5.47,5.5-8.22,8.24c-0.32,0.32-0.52,0.52-0.08,0.95c2.83,2.79,5.63,5.6,8.42,8.42
	c0.35,0.35,0.63,0.45,0.96,0.01c0.11-0.14,0.27-0.24,0.4-0.36c1.48-1.35,1.45-1.32,0.09-2.71c-1.3-1.33-2.54-2.72-3.78-4.06
	c0.1,0,0.31,0,0.53,0c4.24,0,8.48-0.02,12.72,0.02c0.82,0.01,1.18-0.19,1.05-1.04c-0.05-0.31-0.05-0.64,0-0.94
	c0.19-1.11-0.31-1.32-1.33-1.3c-4.36,0.06-8.72,0.02-13.31,0.02C85.49,9.8,85.54,9.73,85.6,9.67z M21.8,70.71
	c0.45-0.62,0.87-1.25,1.31-1.87c0.25-0.34,0.07-0.51-0.19-0.75c-1.88-1.69-2.36-1.62-3.66,0.59c-0.12,0.21-0.47,0.44-0.18,0.66
	c0.73,0.59,1.51,1.11,2.33,1.69C21.54,70.92,21.7,70.84,21.8,70.71z M29.08,11.29c0,2.03,0,2,1.63,2.05
	c1.01,0.03,1.88,0.12,1.65-1.38c-0.15-0.99,0.41-2.39-1.33-1.88C29.09,10.07,29.09,10.07,29.08,11.29z M37.57,10.07
	c-0.82,0.17-2.33-0.67-1.97,1.25c0.14,0.75-0.78,2.1,1.1,2.02c2.11-0.09,2.12-0.01,2.12-1.55C38.8,10.93,39.23,9.73,37.57,10.07z
	 M103.78,11.37c0.17,0.84-0.58,2.31,1.31,1.93c0.75-0.15,2.1,0.77,1.98-1.15c-0.13-2.08-0.02-2.09-1.45-2.09
	C104.59,10.09,103.44,9.74,103.78,11.37z M112.08,13.36c1.51,0.14,1.52-0.62,1.47-1.71c-0.07-1.58-0.03-1.48-2.09-1.62
	c-1.45-0.1-1.2,0.73-1.18,1.22C110.28,13.32,110.3,13.2,112.08,13.36z M121.75,66.7c-0.29,0.01-2.47,1.54-2.47,1.73
	c0,0.37,1.64,2.57,1.83,2.45c0.82-0.55,1.82-0.87,2.41-1.6C123.46,68.76,121.97,66.69,121.75,66.7z M63.34,99.49
	c4.34,0.94,6.13,3.61,5.31,8.09c-0.13,0.71,0.23,0.85,0.71,1.04c1.65,0.67,3.88-0.02,4.94-1.53c1.13-1.61,1-3.88-0.3-5.4
	c-0.83-0.97-1.86-1.68-2.91-2.39c-2.03-1.36-1.99-1.35-0.57-3.37c0.43-0.62,0.71-0.71,1.35-0.24c3.19,2.35,6.41,4.66,9.64,6.96
	c2.32,1.65,4.84,1.31,6.28-0.83c1.37-2.02,0.74-4.56-1.51-6.06c-3.19-2.12-6.38-4.22-9.58-6.33c-1.51-1-1.51-1-0.47-2.54
	c0.05-0.07,0.12-0.14,0.16-0.22c0.43-1.01,0.93-0.97,1.8-0.36c5.08,3.58,10.21,7.09,15.32,10.63c0.79,0.55,1.6,1,2.58,1.08
	c2.06,0.17,3.8-0.91,4.47-2.77c0.71-1.94,0.08-3.94-1.74-5.21c-4.98-3.48-9.99-6.93-14.99-10.39c-1.7-1.18-1.66-1.16-0.71-3.02
	c0.41-0.8,0.68-0.9,1.45-0.36c4.38,3.09,8.8,6.12,13.21,9.17c2.89,1.99,5.77,4.01,8.71,5.93c2.99,1.95,6.69,0.28,6.9-3.06
	c0.11-1.79-0.73-3.07-2.19-4.06c-6.35-4.28-12.75-8.49-18.98-12.93c-2.7-1.92-5.35-2.95-8.77-2.91c-4.99,0.06-8.79-2.34-10.76-7.14
	c-0.24-0.59-0.53-0.8-1.18-0.79c-3.11,0.04-6.23,0.05-9.34-0.01c-0.87-0.02-1.16,0.33-1.36,1.08c-0.49,1.84-1.26,3.56-2.37,5.11
	c-2.17,3-5.9,4.34-9.44,3.44c-0.89-0.22-1.31-0.59-1.3-1.65c0.08-4.46,0.05-8.93,0.02-13.4c-0.01-0.78,0.23-1.19,0.94-1.54
	c2.64-1.3,5.24-2.67,7.86-4.01c-3.05-0.23-6.06-0.1-9.05-0.27c-2.16-0.13-3.45,0.45-4.71,2.4c-4.31,6.65-8.91,13.11-13.45,19.61
	c-0.53,0.76-0.49,1.13,0.21,1.72c1.88,1.58,3.44,3.43,4.28,5.8c0.17,0.5,0.34,0.9,1.11,0.86c3.17-0.14,5.4,1.43,6.87,4.14
	c0.31,0.56,0.42,0.65,1.03,0.3c3.64-2.15,8.33-0.73,10.11,3.05c0.39,0.83,0.66,1.01,1.5,0.51c4.56-2.72,10.53,1.11,10.56,6.26
	c0.01,2.05-0.82,3.75-1.99,5.42C63.18,99.42,63.26,99.48,63.34,99.49z M59.25,90.19c-1.57-0.59-3.28-0.13-4.46,1.35
	c-1.6,2.01-3.13,4.07-4.66,6.13c-1.52,2.03-1.28,4.43,0.56,5.88c1.76,1.38,4.31,0.94,5.83-1.02c1.49-1.93,2.95-3.87,4.42-5.8
	c0.59-0.77,0.99-1.61,0.93-2.52C61.85,92.43,60.74,90.76,59.25,90.19z M48.23,86.52c-1.44-0.56-3.17-0.17-4.3,1.14
	c-1.06,1.23-1.99,2.55-2.95,3.86c-0.98,1.34-1.03,2.77-0.19,4.18c0.87,1.45,2.19,2.1,3.88,1.9c2.47-0.29,6.12-4.59,6.1-7.15
	c0-0.05,0-0.09,0-0.14C50.74,88.59,49.74,87.1,48.23,86.52z M39.56,86.84c0.03-2.14-2.07-4.24-4.23-4.23
	c-2.06,0.01-3.78,1.67-3.75,3.62c0.03,2.28,1.88,4.21,4.03,4.23C37.68,90.47,39.53,88.77,39.56,86.84z M62.33,102.55
	c-1.83,0.03-3.79,2.12-3.8,4.06c-0.01,1.79,1.44,3.3,3.2,3.32c1.91,0.02,3.95-2.17,3.94-4.24
	C65.66,103.91,64.18,102.52,62.33,102.55z"/>
</svg>
