<?xml version="1.0" encoding="utf-8"?>
<!-- Generator: Adobe Illustrator 23.0.6, SVG Export Plug-In . SVG Version: 6.00 Build 0)  -->
<svg version="1.1" id="Layer_1" xmlns="http://www.w3.org/2000/svg" xmlns:xlink="http://www.w3.org/1999/xlink" x="0px" y="0px"
	 viewBox="0 0 133 133" style="enable-background:new 0 0 133 133;" xml:space="preserve">
<style type="text/css">
	.st0{fill:#5582B8;}
</style>
<g>
	<path class="st0" d="M18.52,130c0.01-3.87,0.04-7.74,0-11.61c-0.01-0.8,0.21-1.08,1-0.99c0.56,0.06,1.14-0.05,1.69,0.03
		c1.02,0.15,1.34-0.23,1.21-1.24c-0.11-0.89-0.45-1.58-1.09-2.21c-4.12-4.09-8.21-8.22-12.33-12.31C6.72,99.4,5.59,96.7,5.6,93.45
		C5.64,83.2,5.62,72.96,5.61,62.71c0-2.63,0.51-5.02,2.65-6.84c2.8-2.37,7.43-1.59,9.2,1.61c0.71,1.29,1.08,2.69,1.08,4.16
		c0.01,6.94,0,13.87,0.03,20.81c0,0.69-0.19,0.87-0.87,0.87c-2.06,0-2.06,0.03-2.06-1.98c0-6.29,0-12.58,0-18.88
		c0-1.02-0.11-2-0.46-2.96c-0.51-1.4-1.51-2.04-2.95-2.04c-1.37,0-2.4,0.55-2.97,1.86c-0.43,0.98-0.58,2.01-0.58,3.06
		c0,10.33,0,20.65,0,30.98c0,2.37,0.82,4.36,2.52,6.06c3.97,3.96,7.87,7.99,11.82,11.97c1.46,1.47,2.38,3.14,2.29,5.25
		c-0.03,0.68,0.24,0.78,0.84,0.78c6.7-0.02,13.39-0.01,20.09-0.01c0.37,0,0.85,0.16,0.82-0.53c-0.12-3.38,0.26-6.78-0.23-10.15
		c-0.23-1.54-0.94-2.9-2.07-4.01C39.1,97.2,33.44,91.68,27.79,86.15c-1.1-1.08-2.39-1.54-3.86-1.09c-1.47,0.44-2.12,1.65-2.41,3.07
		c-0.28,1.37,0.35,2.42,1.3,3.33c2.37,2.25,4.71,4.53,7.11,6.74c0.67,0.62,0.85,1.07,0.07,1.67c-0.25,0.19-0.46,0.46-0.64,0.72
		c-0.37,0.52-0.66,0.46-1.11,0.03c-2.55-2.47-5.16-4.88-7.68-7.37C18,90.7,18,86.7,20.5,84.12c2.54-2.63,6.51-2.86,9.12-0.35
		c5.82,5.59,11.58,11.23,17.3,16.92c2.18,2.16,3.2,4.89,3.23,7.97c0.02,2.54,0.03,5.08-0.01,7.62c-0.01,0.73,0.16,0.97,0.93,0.95
		c0.95-0.02,2.18-0.46,2.78,0.18c0.59,0.63,0.17,1.85,0.18,2.81c0.05,3.26,0.06,6.53,0.09,9.79c-0.97,0-1.94,0-2.9,0
		c-0.44-0.51-0.38-1.13-0.39-1.73c-0.01-2.06,0.01-4.11-0.01-6.17c-0.01-1.48-0.14-1.63-1.57-1.63c-8.67-0.01-17.34-0.01-26.01,0
		c-1.28,0-1.39,0.12-1.4,1.39c-0.02,2.14,0,4.27-0.01,6.41c0,0.6,0.06,1.22-0.39,1.73C20.46,130,19.49,130,18.52,130z"/>
	<path class="st0" d="M78.31,130c-0.03-3.91-0.05-7.82-0.09-11.72c-0.01-0.56,0.21-0.72,0.71-0.65c0.08,0.01,0.16,0.01,0.24,0
		c0.95-0.1,2.2,0.44,2.75-0.24c0.46-0.57,0.17-1.77,0.18-2.69c0.01-1.81,0.02-3.63,0-5.44c-0.03-3.41,1.24-6.28,3.65-8.65
		c5.64-5.54,11.29-11.07,16.94-16.59c2.23-2.18,6.34-2.23,8.61-0.13c2.66,2.47,3.05,6.6,0.59,9.23c-2.56,2.73-5.38,5.22-8.07,7.83
		c-0.37,0.36-0.55,0.24-0.87-0.06c-1.62-1.56-1.63-1.55,0.03-3.13c2.22-2.11,4.45-4.22,6.66-6.33c1.51-1.44,1.52-3.75,0.03-5.3
		c-1.37-1.44-3.64-1.52-5.09-0.11c-5.61,5.46-11.21,10.92-16.77,16.42c-1.73,1.71-2.61,3.86-2.63,6.3
		c-0.03,2.58,0.02,5.16-0.03,7.74c-0.01,0.72,0.15,0.96,0.92,0.96c6.69-0.03,13.39-0.03,20.08-0.01c0.73,0,0.97-0.16,0.94-0.93
		c-0.07-1.97,0.76-3.58,2.14-4.95c3.97-3.96,7.91-7.94,11.9-11.88c1.85-1.83,2.77-3.96,2.77-6.58c-0.03-10.2-0.01-20.41-0.02-30.61
		c0-1.01,0.01-2.02-0.32-2.99c-0.47-1.35-1.46-2.1-2.88-2.19c-1.45-0.1-2.49,0.49-3.12,1.8c-0.5,1.04-0.61,2.16-0.61,3.3
		c0,6.45-0.02,12.91,0.03,19.36c0.01,1.05-0.33,1.33-1.3,1.23c-0.82-0.09-1.7,0.3-1.68-1.22c0.09-6.49,0.04-12.99,0.04-19.48
		c0-0.93,0.04-1.85,0.26-2.76c0.82-3.29,2.86-5.07,5.85-5.07c3.41,0,5.75,1.83,6.54,5.12c0.22,0.91,0.29,1.83,0.29,2.76
		c-0.01,10.32-0.02,20.65,0,30.97c0.01,3.07-1.09,5.65-3.24,7.81c-4.07,4.08-8.16,8.16-12.23,12.24c-0.37,0.37-0.73,0.76-1.01,1.19
		c-0.48,0.75-0.88,1.73-0.62,2.46c0.19,0.52,1.31,0.12,2.01,0.19c0.28,0.03,0.57,0.04,0.85,0c0.8-0.13,0.91,0.26,0.91,0.95
		c-0.03,3.95-0.01,7.9-0.01,11.86c-0.97,0-1.94,0-2.9,0c-0.44-0.5-0.38-1.13-0.39-1.72c-0.01-2.13,0.01-4.27-0.01-6.4
		c-0.01-1.27-0.13-1.4-1.38-1.4c-8.66-0.02-17.31-0.02-25.97,0c-1.26,0-1.37,0.13-1.38,1.4c-0.02,2.13,0,4.27-0.01,6.4
		c0,0.6,0.06,1.22-0.39,1.72C80.25,130,79.28,130,78.31,130z"/>
	<path class="st0" d="M67.66,6.07c-0.03,4.38-0.04,8.75-0.09,13.13c-0.01,0.52,0.35,1.33-0.26,1.52c-0.73,0.23-1.59,0.1-2.39,0.05
		c-0.28-0.02-0.25-0.37-0.25-0.61c0.03-4.7,0.05-9.4,0.08-14.1C65.73,6.07,66.69,6.07,67.66,6.07z"/>
	<path class="st0" d="M41.59,39.16c-0.04,0.51,0.05,1.15-0.25,1.69c-0.56,1-0.19,1.62,0.62,2.3c2.82,2.35,5.59,4.76,8.35,7.17
		c0.49,0.42,0.73,0.35,1.16-0.08c3.15-3.24,6.31-6.47,9.5-9.67c0.46-0.46,0.45-0.77,0.16-1.32c-1.43-2.75-0.71-6.01,1.7-7.95
		c2.32-1.87,5.61-1.87,7.93-0.01c2.41,1.94,3.14,5.16,1.67,7.94c-0.35,0.66-0.2,0.97,0.24,1.41c3.18,3.26,6.36,6.53,9.51,9.82
		c0.4,0.42,0.64,0.43,1.07,0.06c2.95-2.57,5.9-5.14,8.89-7.66c0.59-0.5,0.43-0.88,0.19-1.44c-1.46-3.46,0.29-7.3,3.85-8.5
		c3.48-1.17,7.29,0.94,8.2,4.54c0.93,3.69-1.74,7.54-5.54,7.81c-0.95,0.07-1.17,0.49-1.39,1.24c-1.98,6.84-4.02,13.65-5.96,20.5
		c-0.32,1.13-0.76,1.44-1.9,1.22C80.83,66.53,72,65.88,63.1,66.1c-6.54,0.16-13.03,0.85-19.46,2.04c-1.85,0.34-1.85,0.36-2.37-1.41
		c-1.99-6.79-3.98-13.58-5.96-20.37c-0.16-0.56-0.26-0.98-1.04-1.05c-3.24-0.28-5.37-2.18-5.66-4.93c-0.36-3.41,1.45-6.39,4.53-7.43
		C37.32,31.53,41.6,34.63,41.59,39.16z M37.67,45.02c1.89,6.48,3.8,12.96,5.66,19.45c0.2,0.69,0.51,0.6,1.05,0.51
		c14.36-2.41,28.73-2.41,43.09-0.02c0.81,0.13,1.07,0.02,1.32-0.78c1.92-6.18,3.67-12.41,5.43-18.64c0.08-0.29,0.44-0.72,0.02-0.95
		c-0.41-0.22-0.61,0.28-0.86,0.5c-3.42,3.13-7.01,6.07-10.55,9.06c-0.75,0.63-1.16,0.6-1.82-0.14c-3.53-3.93-7.27-7.67-10.99-11.42
		c-0.53-0.54-0.95-0.64-1.65-0.37c-1.55,0.61-3.16,0.66-4.69-0.07c-0.53-0.25-0.78-0.05-1.11,0.3c-3.64,3.77-7.3,7.53-10.94,11.3
		c-1.18,1.23-1.17,1.24-2.54,0.26c-0.16-0.12-0.32-0.24-0.48-0.37c-3.32-2.76-6.64-5.51-9.83-8.42c-0.3-0.28-0.52-0.75-1.12-0.66
		C37.67,44.71,37.63,44.88,37.67,45.02z M34.57,35.33c-2.09,0.02-3.67,1.63-3.61,3.69c0.05,1.88,1.74,3.46,3.65,3.42
		c1.94-0.04,3.55-1.71,3.52-3.67C38.11,36.81,36.56,35.32,34.57,35.33z M97.84,42.38c1.99,0.02,3.61-1.59,3.61-3.59
		c0-1.95-1.57-3.47-3.57-3.46c-2.05,0.01-3.4,1.37-3.4,3.4C94.49,40.77,95.95,42.36,97.84,42.38z M69.67,36.1
		c0.01-1.95-1.46-3.46-3.4-3.48c-2.02-0.03-3.73,1.65-3.72,3.64c0.01,1.97,1.41,3.23,3.57,3.23C68.3,39.5,69.66,38.19,69.67,36.1z"
		/>
	<path class="st0" d="M48.3,27.66c-0.57,0.55-1.11,1.24-1.81,1.68c-0.49,0.31-0.77-0.41-1.07-0.71c-2.95-2.91-5.86-5.87-8.82-8.77
		c-0.57-0.55-0.57-0.85,0-1.39c1.4-1.34,1.37-1.37,2.74-0.01c2.79,2.79,5.58,5.58,8.37,8.37C47.92,27.05,48.23,27.21,48.3,27.66z"/>
	<path class="st0" d="M96.25,19.21c-0.14,0.15-0.3,0.33-0.46,0.49c-3.07,3.07-6.16,6.14-9.21,9.23c-0.48,0.49-0.73,0.49-1.21,0
		c-1.45-1.47-1.48-1.44-0.02-2.91c2.53-2.53,5.07-5.07,7.6-7.6c1.41-1.41,1.41-1.41,2.82,0.07C95.95,18.7,96.25,18.82,96.25,19.21z"
		/>
	<path class="st0" d="M24.79,124.33c0-1.68,0-1.61,1.46-1.7c1.07-0.06,1.57,0.11,1.48,1.37c-0.13,1.9-0.05,1.78-1.75,1.95
		C24.44,126.1,24.81,125.14,24.79,124.33z"/>
	<path class="st0" d="M30.39,124.38c0-1.73,0-1.68,1.85-1.74c1.98-0.06,0.84,1.38,1.02,2.11c0.4,1.66-0.94,1.02-1.7,1.16
		C29.98,126.22,30.45,125.08,30.39,124.38z"/>
	<path class="st0" d="M102.02,124.33c-0.03,0.78,0.39,1.77-1.18,1.62c-1.71-0.16-1.72-0.04-1.72-1.46c0-1.84,0.02-1.7,1.55-1.88
		C102.27,122.43,102.09,123.35,102.02,124.33z"/>
	<path class="st0" d="M107.63,124.38c-0.17,0.56,0.57,1.67-1.02,1.57c-1.88-0.12-1.87-0.02-1.89-1.9c-0.01-0.83-0.12-1.54,1.18-1.43
		C107.62,122.75,107.62,122.65,107.63,124.38z"/>
</g>
</svg>
