<?xml version="1.0" encoding="utf-8"?>
<!-- Generator: Adobe Illustrator 23.0.6, SVG Export Plug-In . SVG Version: 6.00 Build 0)  -->
<svg version="1.1" id="Isolation_Mode" xmlns="http://www.w3.org/2000/svg" xmlns:xlink="http://www.w3.org/1999/xlink" x="0px"
	 y="0px" viewBox="0 0 158 44" style="enable-background:new 0 0 158 44;" xml:space="preserve">
<style type="text/css">
	.st0{fill:#FFFFFF;}
</style>
<g>
	<g>
		<g>
			<g>
				<g>
					<path class="st0" d="M58.36,16.85c-0.17-3.29-0.38-7.25-0.35-10.19h-0.11c-0.8,2.76-1.79,5.71-2.97,8.96l-4.17,11.45h-2.31
						l-3.82-11.24c-1.12-3.33-2.07-6.37-2.73-9.17h-0.07c-0.07,2.94-0.25,6.9-0.46,10.43l-0.63,10.12h-2.91L39.5,3.62h3.88
						l4.03,11.41c0.98,2.91,1.79,5.5,2.38,7.95h0.1c0.6-2.38,1.44-4.97,2.49-7.95l4.2-11.41h3.89l1.47,23.59h-2.97L58.36,16.85z"/>
					<path class="st0" d="M73.87,16.6v2.28h-8.65V16.6H73.87z"/>
					<path class="st0" d="M94.55,26.44c-1.12,0.56-3.36,1.12-6.23,1.12c-6.65,0-11.66-4.2-11.66-11.94
						c0-7.39,5.01-12.39,12.32-12.39c2.94,0,4.8,0.63,5.6,1.05l-0.73,2.48c-1.16-0.56-2.8-0.98-4.76-0.98
						c-5.53,0-9.21,3.54-9.21,9.73c0,5.78,3.33,9.49,9.07,9.49c1.85,0,3.75-0.38,4.97-0.98L94.55,26.44z"/>
					<path class="st0" d="M102.32,19.79l-2.45,7.42h-3.15l8.02-23.59h3.68l8.05,23.59h-3.26l-2.52-7.42H102.32z M110.06,17.41
						l-2.31-6.79c-0.53-1.54-0.88-2.94-1.23-4.31h-0.07c-0.35,1.4-0.74,2.84-1.19,4.27l-2.31,6.83H110.06z"/>
					<path class="st0" d="M119.51,23.5c1.37,0.84,3.36,1.54,5.46,1.54c3.12,0,4.94-1.65,4.94-4.03c0-2.21-1.26-3.47-4.45-4.69
						c-3.85-1.37-6.23-3.36-6.23-6.69c0-3.67,3.05-6.41,7.63-6.41c2.42,0,4.17,0.56,5.22,1.16l-0.84,2.49
						c-0.77-0.42-2.35-1.12-4.48-1.12c-3.22,0-4.45,1.92-4.45,3.54c0,2.21,1.43,3.29,4.69,4.55c3.99,1.54,6.02,3.46,6.02,6.93
						c0,3.64-2.7,6.79-8.26,6.79c-2.28,0-4.76-0.67-6.02-1.5L119.51,23.5z"/>
					<path class="st0" d="M140.23,3.62v9.87h11.41V3.62h3.08v23.59h-3.08V16.15h-11.41v11.06h-3.05V3.62H140.23z"/>
				</g>
			</g>
		</g>
	</g>
	<g>
		<g>
			<path class="st0" d="M39.97,39.19l-0.06-0.49h-0.02c-0.22,0.3-0.63,0.58-1.18,0.58c-0.78,0-1.18-0.55-1.18-1.11
				c0-0.94,0.83-1.45,2.33-1.44v-0.08c0-0.32-0.09-0.9-0.88-0.9c-0.36,0-0.74,0.11-1.01,0.29l-0.16-0.46
				c0.32-0.21,0.78-0.34,1.27-0.34c1.18,0,1.47,0.81,1.47,1.58v1.45c0,0.34,0.02,0.66,0.06,0.93H39.97z M39.87,37.22
				c-0.77-0.02-1.64,0.12-1.64,0.87c0,0.46,0.3,0.67,0.66,0.67c0.5,0,0.82-0.32,0.94-0.65c0.02-0.07,0.04-0.15,0.04-0.22V37.22z"/>
			<path class="st0" d="M42.49,36.37c0-0.4-0.01-0.73-0.03-1.05h0.62l0.04,0.64h0.02c0.19-0.37,0.64-0.73,1.28-0.73
				c0.54,0,1.37,0.32,1.37,1.65v2.31h-0.7v-2.23c0-0.62-0.23-1.14-0.9-1.14c-0.46,0-0.82,0.33-0.94,0.72
				c-0.03,0.09-0.05,0.21-0.05,0.33v2.33h-0.7V36.37z"/>
			<path class="st0" d="M47.88,35.32l0.85,2.29c0.09,0.26,0.18,0.56,0.25,0.79h0.02c0.07-0.23,0.15-0.53,0.25-0.81L50,35.32h0.74
				l-1.06,2.76c-0.5,1.33-0.85,2.01-1.33,2.42c-0.34,0.3-0.69,0.42-0.86,0.46l-0.18-0.59c0.18-0.06,0.41-0.17,0.62-0.34
				c0.19-0.15,0.43-0.42,0.59-0.78c0.03-0.07,0.06-0.13,0.06-0.17s-0.02-0.1-0.05-0.18l-1.43-3.57H47.88z"/>
			<path class="st0" d="M52.56,35.32l0.51,1.97c0.11,0.43,0.22,0.83,0.29,1.23h0.02c0.09-0.39,0.22-0.81,0.34-1.22l0.63-1.98h0.59
				l0.6,1.94c0.14,0.46,0.26,0.87,0.34,1.26h0.02c0.06-0.39,0.17-0.8,0.3-1.25l0.55-1.94h0.7l-1.25,3.87h-0.64l-0.59-1.85
				c-0.14-0.43-0.25-0.82-0.34-1.27h-0.02c-0.1,0.46-0.22,0.86-0.35,1.28l-0.62,1.84h-0.64l-1.17-3.87H52.56z"/>
			<path class="st0" d="M58.97,33.52h0.7v2.41h0.02c0.11-0.2,0.29-0.38,0.5-0.5c0.21-0.12,0.46-0.2,0.72-0.2
				c0.52,0,1.35,0.32,1.35,1.66v2.3h-0.7v-2.22c0-0.62-0.23-1.15-0.9-1.15c-0.46,0-0.82,0.32-0.94,0.7c-0.04,0.1-0.05,0.2-0.05,0.34
				v2.33h-0.7V33.52z"/>
			<path class="st0" d="M64.6,37.39c0.02,0.95,0.62,1.34,1.33,1.34c0.5,0,0.81-0.09,1.07-0.2l0.12,0.5
				c-0.25,0.11-0.67,0.24-1.29,0.24c-1.19,0-1.9-0.78-1.9-1.95s0.69-2.09,1.82-2.09c1.26,0,1.6,1.11,1.6,1.82
				c0,0.14-0.02,0.26-0.02,0.33H64.6z M66.67,36.88c0.01-0.45-0.18-1.14-0.98-1.14c-0.71,0-1.02,0.66-1.08,1.14H66.67z"/>
			<path class="st0" d="M69.02,36.53c0-0.46-0.01-0.85-0.03-1.21h0.62l0.02,0.76h0.03c0.18-0.52,0.6-0.85,1.07-0.85
				c0.08,0,0.14,0.01,0.2,0.02v0.66c-0.07-0.02-0.14-0.02-0.24-0.02c-0.5,0-0.85,0.38-0.94,0.9c-0.02,0.1-0.03,0.21-0.03,0.33v2.06
				h-0.7V36.53z"/>
			<path class="st0" d="M72.75,37.39c0.02,0.95,0.62,1.34,1.33,1.34c0.5,0,0.81-0.09,1.07-0.2l0.12,0.5
				c-0.25,0.11-0.67,0.24-1.29,0.24c-1.19,0-1.9-0.78-1.9-1.95s0.69-2.09,1.82-2.09c1.26,0,1.6,1.11,1.6,1.82
				c0,0.14-0.02,0.26-0.02,0.33H72.75z M74.81,36.88c0.01-0.45-0.18-1.14-0.98-1.14c-0.71,0-1.02,0.66-1.08,1.14H74.81z"/>
			<path class="st0" d="M81.8,39.19l-0.06-0.49h-0.02c-0.22,0.3-0.63,0.58-1.18,0.58c-0.78,0-1.18-0.55-1.18-1.11
				c0-0.94,0.83-1.45,2.33-1.44v-0.08c0-0.32-0.09-0.9-0.88-0.9c-0.36,0-0.74,0.11-1.01,0.29l-0.16-0.46
				c0.32-0.21,0.78-0.34,1.27-0.34c1.18,0,1.47,0.81,1.47,1.58v1.45c0,0.34,0.02,0.66,0.06,0.93H81.8z M81.7,37.22
				c-0.77-0.02-1.64,0.12-1.64,0.87c0,0.46,0.3,0.67,0.66,0.67c0.5,0,0.82-0.32,0.94-0.65c0.02-0.07,0.04-0.15,0.04-0.22V37.22z"/>
			<path class="st0" d="M84.32,36.37c0-0.4-0.01-0.73-0.03-1.05h0.62l0.04,0.64h0.02c0.19-0.37,0.64-0.73,1.28-0.73
				c0.54,0,1.37,0.32,1.37,1.65v2.31h-0.7v-2.23c0-0.62-0.23-1.14-0.9-1.14c-0.46,0-0.82,0.33-0.94,0.72
				c-0.03,0.09-0.05,0.21-0.05,0.33v2.33h-0.7V36.37z"/>
			<path class="st0" d="M89.71,35.32l0.85,2.29c0.09,0.26,0.18,0.56,0.25,0.79h0.02c0.07-0.23,0.15-0.53,0.25-0.81l0.77-2.27h0.74
				l-1.06,2.76c-0.5,1.33-0.85,2.01-1.33,2.42c-0.34,0.3-0.69,0.42-0.86,0.46l-0.18-0.59c0.18-0.06,0.41-0.17,0.62-0.34
				c0.19-0.15,0.43-0.42,0.59-0.78c0.03-0.07,0.06-0.13,0.06-0.17s-0.02-0.1-0.05-0.18l-1.43-3.57H89.71z"/>
			<path class="st0" d="M94.87,34.21v1.11h1.01v0.54h-1.01v2.09c0,0.48,0.14,0.75,0.53,0.75c0.18,0,0.32-0.02,0.41-0.05l0.03,0.53
				c-0.14,0.06-0.35,0.1-0.62,0.1c-0.33,0-0.59-0.1-0.76-0.3c-0.2-0.21-0.27-0.55-0.27-1.01v-2.11h-0.6v-0.54h0.6V34.4L94.87,34.21z
				"/>
			<path class="st0" d="M98.25,34.24c0.01,0.24-0.17,0.43-0.45,0.43c-0.25,0-0.42-0.19-0.42-0.43c0-0.25,0.18-0.44,0.44-0.44
				C98.08,33.8,98.25,33.99,98.25,34.24z M97.47,39.19v-3.87h0.7v3.87H97.47z"/>
			<path class="st0" d="M100.14,36.37c0-0.4-0.01-0.73-0.03-1.05h0.62l0.03,0.62h0.02c0.22-0.37,0.58-0.71,1.21-0.71
				c0.53,0,0.93,0.32,1.1,0.78h0.02c0.12-0.22,0.27-0.38,0.43-0.5c0.23-0.18,0.49-0.27,0.86-0.27c0.51,0,1.27,0.34,1.27,1.68v2.28
				h-0.69V37c0-0.74-0.27-1.19-0.84-1.19c-0.4,0-0.71,0.3-0.83,0.64c-0.03,0.1-0.06,0.22-0.06,0.35v2.39h-0.69v-2.32
				c0-0.62-0.27-1.06-0.81-1.06c-0.44,0-0.76,0.35-0.87,0.7c-0.04,0.1-0.06,0.22-0.06,0.34v2.33h-0.69V36.37z"/>
			<path class="st0" d="M108,37.39c0.02,0.95,0.62,1.34,1.33,1.34c0.5,0,0.81-0.09,1.07-0.2l0.12,0.5
				c-0.25,0.11-0.67,0.24-1.29,0.24c-1.19,0-1.9-0.78-1.9-1.95s0.69-2.09,1.82-2.09c1.26,0,1.6,1.11,1.6,1.82
				c0,0.14-0.02,0.26-0.02,0.33H108z M110.07,36.88c0.01-0.45-0.18-1.14-0.98-1.14c-0.71,0-1.02,0.66-1.08,1.14H110.07z"/>
		</g>
	</g>
	<g>
		<path class="st0" d="M15.37,36.18h3.08c0.26,0,0.46-0.21,0.46-0.46c0-0.26-0.2-0.46-0.46-0.46h-3.08c-0.24,0-0.45,0.2-0.45,0.46
			C14.92,35.97,15.13,36.18,15.37,36.18z"/>
		<path class="st0" d="M24.74,19.52l2.92-0.85V6.01c0-1.28-1.05-2.33-2.33-2.33H8.5c-1.28,0-2.33,1.05-2.33,2.33v30.33
			c0,1.3,1.05,2.33,2.33,2.33h16.82c1.28,0,2.33-1.04,2.33-2.33V18.86l-2.92,1.6v12.26H9.08v-8.65L24.74,19.52z M9.08,8.88
			c1.14-0.23,2.04-1.14,2.27-2.27h11.11c0.23,1.13,1.13,2.04,2.28,2.27v9.41l-2.67,0.78c-0.51-2.37-2.61-4.15-5.16-4.15
			c-2.94,0-5.32,2.38-5.32,5.32c0,0.63,0.12,1.23,0.32,1.78l-2.82,0.82V8.88z M15.37,34.11h3.08c0.9,0,1.62,0.72,1.62,1.62
			c0,0.89-0.72,1.62-1.62,1.62h-3.08c-0.89,0-1.62-0.74-1.62-1.62C13.75,34.83,14.48,34.11,15.37,34.11z"/>
	</g>
</g>
</svg>
